<?xml version="1.0" standalone="no"?>
<!DOCTYPE svg PUBLIC "-//W3C//DTD SVG 20010904//EN"
 "http://www.w3.org/TR/2001/REC-SVG-20010904/DTD/svg10.dtd">
<svg version="1.0" xmlns="http://www.w3.org/2000/svg"
 width="2000.000000pt" height="1391.000000pt" viewBox="0 0 2000.000000 1391.000000"
 preserveAspectRatio="xMidYMid meet">

<g transform="translate(0.000000,1391.000000) scale(0.100000,-0.100000)"
fill="#000000" stroke="none">
<path d="M4733 6496 c9 -22 -18 -39 -41 -27 -10 5 -28 8 -39 5 -12 -3 -24 -1
-27 5 -4 6 -12 11 -17 11 -6 0 -7 -4 -4 -10 3 -5 0 -7 -8 -5 -7 3 -30 -1 -50
-10 -21 -9 -42 -13 -48 -9 -6 3 -16 -2 -23 -11 -16 -22 -56 -11 -56 15 0 28
-18 34 -48 14 l-27 -18 33 -13 c18 -7 30 -17 27 -22 -7 -12 -77 7 -88 23 -5 7
-13 3 -26 -13 -19 -24 -41 -22 -41 5 0 19 -20 18 -35 -2 -9 -14 -16 -14 -33
-5 -27 15 -91 4 -99 -16 -3 -8 -12 -12 -19 -9 -8 3 -24 2 -36 -3 -15 -6 -32
-4 -49 4 -15 8 -31 10 -39 5 -8 -5 -19 -3 -27 6 -23 23 -57 0 -48 -33 5 -20 3
-24 -9 -20 -8 3 -31 9 -50 13 -32 5 -36 4 -36 -15 0 -26 -10 -27 -43 -1 -33
26 -41 25 -61 -5 -10 -15 -12 -25 -6 -25 6 0 9 -4 6 -9 -3 -4 -16 -6 -30 -4
-16 3 -31 -2 -45 -16 -29 -29 -41 -26 -41 8 0 24 -4 28 -19 24 -11 -3 -17 -11
-15 -18 6 -14 -25 -25 -72 -25 -20 0 -34 -6 -38 -16 -5 -12 -14 -15 -35 -11
-15 3 -33 1 -38 -4 -6 -6 -20 -4 -40 7 -34 20 -66 13 -61 -13 2 -10 -3 -23
-11 -29 -13 -10 -13 -14 -1 -30 14 -17 13 -17 -16 1 -31 18 -32 18 -55 -4 -27
-25 -44 -28 -35 -6 5 13 -2 15 -34 13 -52 -3 -74 -26 -65 -67 4 -20 3 -31 -4
-31 -6 0 -11 7 -11 15 0 11 -10 14 -40 13 -22 -1 -40 -6 -40 -13 0 -22 -22
-35 -42 -24 -13 7 -23 7 -32 0 -7 -6 -26 -12 -42 -13 -16 -1 -43 -14 -61 -31
-31 -29 -45 -31 -97 -11 -9 3 -16 1 -16 -5 0 -6 10 -11 22 -11 21 0 21 -1 5
-17 -16 -16 -18 -16 -30 1 -13 18 -16 17 -48 -18 -27 -30 -43 -38 -73 -40 -21
-1 -40 2 -42 6 -6 10 -34 -2 -34 -14 0 -5 8 -7 18 -4 11 4 21 -2 29 -19 13
-29 10 -30 -21 -9 -23 14 -25 14 -42 -15 -14 -23 -23 -29 -40 -25 -17 4 -24 0
-29 -16 -7 -21 -7 -21 -27 -3 -20 17 -21 17 -32 -1 -25 -43 -69 -87 -76 -76
-4 6 -20 10 -36 8 -21 -2 -30 -9 -32 -26 -3 -19 -6 -21 -18 -11 -18 15 -39 -1
-48 -36 -3 -13 -17 -36 -30 -50 -14 -15 -22 -33 -19 -41 8 -22 -27 -17 -53 7
-28 26 -41 19 -50 -28 -4 -23 -13 -37 -25 -40 -14 -4 -17 -11 -13 -29 7 -26
-10 -34 -19 -10 -8 19 -45 10 -77 -19 -14 -12 -36 -25 -50 -28 -28 -7 -52 -54
-43 -87 6 -22 -22 -29 -30 -7 -3 9 -7 9 -20 -2 -19 -15 -23 -41 -7 -41 6 0 10
-7 10 -15 0 -8 -4 -15 -10 -15 -5 0 -10 5 -10 10 0 6 -12 10 -26 10 -19 0 -44
-19 -95 -70 -37 -38 -73 -70 -79 -70 -5 0 -10 -6 -10 -14 0 -8 -11 -24 -25
-37 -13 -13 -25 -32 -25 -41 0 -10 -3 -17 -8 -17 -21 4 -33 -3 -30 -17 2 -10
-13 -24 -40 -39 -47 -25 -68 -42 -39 -32 12 5 17 1 17 -13 0 -10 -9 -22 -20
-25 -30 -10 -50 -34 -50 -60 0 -15 -9 -29 -22 -36 -30 -15 -62 -49 -54 -56 3
-4 -2 -15 -11 -26 -10 -10 -18 -31 -18 -46 0 -19 -5 -26 -20 -27 -38 -1 -87
-44 -50 -44 8 0 15 -4 15 -10 0 -5 9 -10 21 -10 11 0 17 -4 14 -10 -3 -5 -17
-10 -29 -10 -13 0 -34 -8 -47 -19 -19 -15 -23 -27 -20 -60 1 -22 -1 -46 -6
-53 -4 -7 -12 -31 -18 -52 -11 -43 -35 -61 -35 -27 0 12 6 21 15 21 8 0 15 5
15 10 0 14 -12 13 -48 -6 -34 -17 -38 -24 -21 -41 17 -17 1 -74 -19 -72 -22 3
-52 -11 -52 -23 0 -5 5 -6 10 -3 7 4 9 -2 4 -19 -4 -16 -1 -32 6 -41 10 -12 9
-15 -9 -15 -16 0 -21 -6 -21 -24 0 -14 5 -28 10 -31 17 -10 11 -35 -8 -35 -21
0 -42 -19 -42 -38 0 -7 -7 -21 -16 -29 -12 -13 -13 -17 -2 -24 10 -7 10 -11 0
-21 -18 -18 -15 -36 10 -44 22 -7 22 -7 -6 -29 -21 -17 -26 -28 -22 -43 4 -12
3 -37 -3 -57 -5 -20 -6 -48 -1 -64 5 -17 4 -33 -1 -38 -5 -5 -11 -25 -12 -44
-1 -19 -6 -37 -11 -41 -5 -3 -9 -29 -7 -57 2 -45 0 -51 -19 -51 -11 0 -20 -7
-20 -16 0 -23 20 -55 30 -49 11 7 1 -92 -11 -117 -13 -25 0 -73 24 -87 18 -12
22 -10 38 10 15 19 19 21 19 7 0 -10 -7 -23 -15 -30 -9 -7 -21 -18 -28 -24 -7
-6 -18 -9 -25 -6 -6 2 -12 -1 -12 -7 0 -6 6 -11 14 -11 21 0 24 -20 8 -52 -17
-36 -8 -81 20 -93 28 -13 35 -35 11 -35 -16 0 -19 -6 -15 -30 5 -33 27 -39 76
-20 16 6 28 6 31 0 7 -11 -63 -42 -76 -34 -16 9 -10 -43 6 -56 11 -9 15 -29
13 -75 -3 -58 -1 -65 26 -90 25 -23 28 -31 22 -65 -5 -30 -2 -42 11 -52 16
-12 43 -51 43 -62 0 -3 -8 -13 -17 -22 -17 -17 -17 -18 0 -11 12 5 17 1 17
-13 0 -10 4 -21 9 -25 5 -3 12 -19 16 -35 4 -20 12 -30 22 -28 11 2 20 -11 29
-41 7 -25 11 -47 9 -50 -1 -3 8 -24 21 -46 32 -54 64 -122 64 -134 0 -6 6 -11
14 -11 20 0 31 -21 16 -30 -17 -11 -3 -68 20 -80 29 -15 33 -12 26 20 -4 22
-2 30 9 30 15 0 21 -34 16 -87 -1 -16 4 -23 17 -23 12 0 26 -17 43 -51 18 -37
33 -54 59 -65 27 -12 32 -17 20 -24 -13 -8 -13 -13 3 -42 10 -18 31 -41 47
-50 17 -9 30 -24 30 -33 0 -9 -5 -13 -10 -10 -6 3 -10 3 -10 -2 0 -13 54 -35
58 -23 7 20 21 9 63 -55 26 -40 50 -65 61 -65 10 0 18 -7 18 -16 0 -9 9 -18
20 -21 11 -3 20 -12 20 -19 0 -8 8 -18 18 -21 9 -4 21 -12 25 -20 4 -7 13 -13
20 -13 26 -1 56 -39 64 -80 9 -48 23 -59 46 -36 13 14 17 13 31 -9 9 -13 16
-31 16 -39 0 -14 102 -89 125 -92 6 -1 16 -2 23 -3 6 0 12 -8 12 -16 0 -9 10
-20 23 -26 12 -6 31 -24 42 -41 11 -17 27 -34 35 -38 8 -4 32 -15 52 -25 31
-15 40 -16 53 -5 17 14 21 0 4 -17 -19 -19 5 -45 45 -49 27 -2 36 1 36 12 0 8
5 12 10 9 6 -4 8 -10 5 -15 -3 -5 5 -12 19 -16 13 -3 27 -12 30 -20 3 -8 15
-14 26 -14 16 0 20 -7 20 -30 0 -23 5 -30 19 -30 11 0 23 -5 26 -11 4 -6 14
-8 22 -5 8 4 30 -3 49 -15 25 -15 42 -19 65 -14 26 6 30 4 28 -12 -5 -27 9
-43 36 -43 13 0 30 -8 37 -18 7 -10 24 -19 36 -19 34 -3 72 -30 72 -53 0 -33
67 -18 101 23 15 18 18 19 19 5 0 -9 -4 -19 -9 -22 -15 -10 -10 -58 5 -52 8 3
14 -1 14 -9 0 -8 7 -15 15 -15 8 0 15 5 15 10 0 19 32 10 37 -11 4 -12 17 -22
35 -26 16 -3 32 -12 35 -19 3 -8 14 -14 24 -14 11 0 31 -8 45 -17 21 -13 30
-14 45 -5 11 7 20 8 24 2 3 -6 21 -10 39 -10 26 0 35 -5 39 -21 5 -17 11 -20
35 -14 25 5 31 3 37 -14 4 -15 15 -21 35 -21 16 0 31 4 35 10 3 5 20 1 41 -10
19 -11 40 -20 48 -20 7 0 23 -11 36 -25 15 -16 28 -22 39 -16 27 13 127 -4
152 -26 12 -10 28 -12 53 -8 24 5 36 3 36 -4 0 -6 14 -11 31 -11 30 0 96 -32
112 -54 5 -8 9 -8 15 0 11 16 43 25 56 15 6 -5 32 -21 59 -35 48 -27 67 -27
67 0 0 10 8 14 23 12 15 -2 21 -9 19 -20 -3 -19 2 -21 33 -9 13 5 36 -1 73
-21 56 -29 72 -29 72 1 0 10 3 20 6 24 10 10 64 -22 64 -37 0 -13 58 -31 68
-21 3 3 -3 5 -14 6 -18 0 -18 1 1 8 11 5 28 3 39 -3 14 -8 20 -8 23 2 5 13 33
17 33 4 0 -5 23 -5 52 -2 47 6 54 5 74 -19 21 -24 22 -24 47 -8 15 9 33 14 43
10 12 -4 15 -3 10 5 -5 8 0 12 13 12 12 0 20 -3 20 -7 -4 -22 3 -33 19 -33 10
0 22 3 25 7 17 16 150 19 155 3 2 -6 8 -10 13 -10 4 0 6 7 3 15 -5 11 1 15 20
15 27 0 37 -24 14 -33 -7 -2 -9 -8 -5 -13 4 -5 11 -3 15 3 4 6 22 14 39 18 25
5 40 2 62 -14 40 -29 61 -27 61 5 0 24 3 26 29 21 23 -5 30 -2 34 14 3 13 10
18 17 14 7 -4 9 -18 6 -31 -4 -14 -2 -24 4 -24 5 0 10 7 10 15 0 19 19 19 40
0 16 -14 19 -13 34 10 17 26 17 26 73 -3 30 -16 53 -15 53 2 0 8 19 18 45 25
41 10 48 9 75 -11 25 -18 33 -20 52 -10 13 7 32 12 43 13 11 0 41 1 67 2 25 1
50 5 54 10 4 4 15 7 25 7 12 0 16 6 12 20 -5 19 -2 20 38 15 24 -4 54 -8 67
-11 17 -3 25 2 34 21 13 29 21 31 42 9 9 -8 17 -13 17 -10 1 3 2 9 3 14 3 19
19 32 38 32 17 0 19 -2 7 -16 -17 -21 3 -34 51 -32 50 1 81 23 78 55 -2 14 3
28 10 30 7 3 12 -5 12 -21 0 -13 5 -28 10 -31 6 -4 8 -11 5 -16 -10 -15 11
-10 25 6 7 8 27 17 46 21 19 3 34 10 34 15 0 5 8 9 18 9 10 0 28 7 40 16 21
15 25 15 41 0 20 -18 51 -21 51 -6 0 6 -5 10 -11 10 -5 0 -8 4 -5 9 3 4 16 6
30 4 19 -4 24 -1 23 13 -2 16 7 19 63 20 41 1 66 6 68 14 3 8 -3 10 -19 5 -16
-5 -21 -4 -14 3 10 10 30 15 53 13 6 0 12 -10 12 -22 0 -14 5 -19 17 -17 10 2
18 12 18 23 0 16 6 19 27 17 18 -2 31 3 39 15 8 13 20 18 38 15 17 -2 33 3 45
17 15 16 21 18 37 8 15 -9 21 -8 32 7 9 13 21 17 35 14 13 -4 26 0 34 9 8 11
24 14 50 10 37 -5 43 -1 39 31 -1 6 3 12 9 12 5 0 10 14 10 30 0 34 15 40 23
10 7 -26 47 -26 70 0 12 14 29 20 61 20 44 0 60 11 61 39 0 17 25 28 25 11 0
-7 6 -8 19 -1 13 7 29 7 51 0 17 -6 34 -8 38 -4 4 4 2 10 -5 12 -15 5 5 43 23
43 6 0 17 7 24 15 8 9 21 13 36 9 19 -5 25 0 37 29 18 41 35 54 43 33 8 -22
23 -20 17 2 -3 12 4 22 21 30 14 6 26 16 26 22 0 5 13 7 30 4 17 -4 30 -3 30
2 0 5 4 15 9 22 7 12 12 12 30 0 25 -15 37 -4 47 44 7 29 30 55 41 44 3 -3 -1
-14 -10 -24 -10 -10 -14 -22 -10 -25 10 -11 51 -8 59 4 12 20 16 77 5 84 -13
8 -15 35 -2 35 5 0 11 -9 14 -20 7 -27 77 -25 77 2 0 21 43 69 56 64 8 -3 22
3 31 14 10 11 23 20 30 20 7 0 13 4 13 9 0 16 46 61 62 61 17 0 48 31 48 49 0
8 5 9 19 2 21 -12 31 -5 31 20 0 9 9 19 19 22 12 3 21 15 23 33 2 24 7 29 30
27 25 -1 26 1 21 32 -5 30 -3 33 15 28 28 -7 62 14 62 37 0 22 10 26 27 9 13
-13 53 38 53 68 0 29 13 43 30 33 23 -15 30 -12 30 10 0 11 -7 20 -15 20 -17
0 -20 25 -5 35 6 3 10 -1 10 -10 0 -12 7 -15 28 -13 22 2 28 9 30 33 2 17 9
37 16 45 7 8 16 23 19 33 8 21 23 22 31 2 3 -8 10 -15 15 -15 13 0 23 32 13
42 -14 14 -2 57 22 76 12 9 25 25 29 35 3 9 11 17 17 17 17 0 33 52 19 61 -18
10 -1 29 26 29 19 0 28 9 39 35 9 20 13 42 10 50 -4 9 0 15 10 15 16 0 62 77
52 88 -3 3 3 12 15 20 14 9 19 21 15 34 -5 21 14 58 47 90 21 22 22 38 3 38
-14 0 -31 29 -21 38 2 3 11 -1 19 -8 22 -17 46 9 46 51 0 18 7 40 16 50 13 14
13 20 2 39 -11 18 -11 22 4 31 10 6 18 19 18 29 0 10 5 22 10 25 6 3 10 22 10
42 0 20 3 33 6 30 12 -12 44 41 44 71 0 16 -7 35 -15 42 -18 15 -16 54 3 56 6
1 19 2 27 3 8 0 15 10 15 21 0 11 4 20 9 20 14 0 1 112 -15 131 -19 22 -17 47
6 76 19 24 19 49 -1 37 -16 -10 -79 36 -79 58 0 11 -5 18 -12 15 -7 -2 -13
-14 -12 -26 0 -14 -4 -20 -13 -17 -10 4 -12 -1 -7 -19 4 -18 2 -25 -9 -25 -21
0 -27 -23 -12 -44 16 -21 35 -13 35 15 0 19 11 25 23 12 4 -3 3 -11 -2 -17
-16 -19 -25 -106 -12 -106 7 0 10 -4 6 -10 -3 -5 -11 -7 -18 -4 -16 6 -72 -44
-62 -54 4 -4 10 -2 12 5 3 8 12 9 29 3 19 -8 24 -6 24 6 0 10 9 5 25 -14 30
-36 33 -50 4 -23 -37 34 -74 5 -78 -62 -1 -9 8 -25 19 -34 22 -19 10 -46 -16
-36 -11 4 -13 -2 -10 -28 4 -40 -22 -101 -54 -127 -22 -18 -23 -23 -12 -46 17
-38 16 -96 -2 -96 -23 0 -58 -57 -51 -81 5 -13 1 -25 -10 -32 -17 -13 -22 -42
-10 -69 5 -13 2 -17 -17 -15 -12 0 -26 5 -30 11 -9 13 -22 -60 -14 -80 6 -15
8 -15 25 0 17 16 18 15 14 -9 -4 -19 -11 -25 -32 -25 -36 0 -51 -17 -51 -57 0
-27 -4 -33 -20 -33 -38 0 -90 -70 -90 -119 0 -23 -5 -30 -22 -33 -13 -2 -24
-11 -26 -23 -2 -11 -14 -28 -25 -37 -19 -15 -20 -20 -9 -38 7 -11 9 -20 5 -20
-13 -1 -89 -70 -77 -70 7 0 14 -9 17 -20 3 -11 12 -20 21 -20 18 0 22 -15 6
-25 -5 -3 -18 3 -30 15 -20 20 -50 27 -50 12 0 -13 -53 -68 -79 -82 -17 -8
-20 -14 -11 -20 17 -11 8 -45 -12 -45 -10 0 -24 -9 -31 -19 -10 -13 -16 -15
-21 -8 -11 18 -36 14 -43 -6 -8 -21 -53 -92 -71 -111 -8 -8 -18 -25 -23 -38
-6 -16 -16 -23 -34 -23 -19 0 -25 -5 -23 -16 2 -10 -3 -19 -9 -21 -7 -3 -13 3
-13 12 0 9 -6 15 -12 12 -13 -4 -14 -17 -7 -46 2 -7 -4 -15 -15 -16 -26 -5
-66 -45 -66 -66 0 -12 -5 -16 -15 -13 -8 4 -15 12 -15 20 0 19 -23 18 -49 -4
-14 -10 -23 -29 -23 -48 -1 -27 -4 -30 -25 -26 -17 3 -29 -3 -44 -22 -11 -14
-29 -26 -40 -26 -10 0 -19 -7 -19 -15 0 -8 -7 -15 -15 -15 -8 0 -15 5 -15 11
0 5 -5 7 -11 3 -8 -5 -8 -9 1 -14 23 -14 -1 -32 -36 -27 -37 6 -84 -25 -84
-56 0 -9 -7 -17 -16 -17 -10 0 -14 6 -11 15 4 8 2 17 -4 20 -5 4 -12 -2 -16
-11 -9 -25 -53 -63 -80 -70 -27 -7 -30 -29 -6 -38 11 -5 13 -10 6 -17 -7 -7
-17 -7 -30 2 -35 21 -92 -5 -119 -54 -8 -13 -17 -14 -49 -7 -37 8 -43 7 -75
-24 -21 -19 -59 -40 -95 -50 -33 -10 -63 -23 -66 -28 -4 -7 -14 -6 -28 1 -24
13 -41 7 -41 -13 0 -18 -54 -39 -79 -31 -18 5 -21 2 -21 -19 0 -16 -6 -26 -15
-26 -8 0 -30 -9 -49 -19 -18 -11 -38 -16 -42 -11 -5 4 -24 10 -42 13 -28 6
-34 3 -44 -18 -6 -14 -19 -27 -28 -30 -10 -3 -25 -14 -35 -25 -23 -25 -35 -25
-35 -1 0 30 -37 37 -64 12 -22 -21 -51 -28 -59 -14 -2 5 -2 2 -1 -4 2 -8 -6
-12 -19 -10 -15 1 -21 -3 -19 -14 1 -9 -5 -22 -13 -29 -12 -10 -15 -10 -15 2
0 12 -13 15 -65 14 -36 0 -65 -5 -65 -11 -1 -25 -17 -37 -37 -26 -16 8 -24 6
-38 -9 -10 -11 -25 -19 -34 -18 -9 1 -29 0 -44 0 -27 -2 -28 -4 -22 -34 l6
-33 -40 45 c-36 40 -42 43 -53 28 -15 -19 -44 -25 -75 -14 -15 5 -30 2 -45 -8
-12 -9 -29 -16 -37 -16 -7 0 -19 -7 -25 -15 -9 -12 -18 -13 -45 -5 -19 5 -45
7 -59 3 -15 -3 -28 -1 -34 8 -8 11 -9 10 -5 -3 3 -9 1 -19 -6 -22 -7 -2 -5 -5
4 -5 19 -1 45 -29 35 -38 -3 -3 -14 1 -24 10 -10 10 -27 17 -37 17 -10 0 -27
7 -37 17 -10 9 -21 13 -26 9 -4 -4 1 -14 11 -21 10 -7 14 -16 8 -19 -5 -4 -12
-2 -15 3 -7 11 -115 9 -133 -2 -7 -5 -28 -5 -46 -2 -24 5 -37 2 -46 -9 -17
-20 -31 -20 -31 -1 0 8 -9 15 -19 15 -11 0 -28 3 -38 6 -15 5 -15 4 -3 -5 8
-6 11 -11 5 -12 -24 -2 -47 -8 -53 -13 -3 -3 -12 0 -21 7 -23 19 -68 37 -75
30 -3 -4 -6 -15 -6 -26 0 -17 -2 -18 -16 -6 -14 11 -19 10 -34 -11 -13 -17
-22 -21 -36 -15 -11 4 -34 9 -52 11 -19 2 -51 12 -71 22 -32 17 -39 18 -56 6
-27 -20 -150 -11 -175 11 -23 20 -56 12 -63 -15 -3 -11 -10 -20 -17 -20 -6 0
-9 4 -5 9 5 10 -54 31 -87 31 -9 0 -19 4 -22 9 -3 5 -15 7 -25 4 -10 -3 -29 0
-41 7 -16 9 -25 8 -37 -2 -13 -11 -17 -11 -21 0 -3 10 -8 10 -22 -3 -17 -15
-21 -15 -49 -1 -28 15 -31 15 -40 -2 -9 -15 -10 -15 -11 6 0 18 -5 22 -32 22
-18 0 -51 -5 -72 -10 -29 -6 -47 -5 -65 4 -101 51 -113 53 -117 25 -1 -5 -2
-12 -3 -15 0 -3 -9 3 -18 15 -14 16 -32 22 -72 24 -45 3 -58 9 -78 31 -24 28
-47 30 -24 2 7 -9 9 -21 5 -28 -5 -7 -7 -21 -6 -31 2 -9 -1 -17 -7 -17 -17 0
-23 20 -11 35 16 20 5 45 -19 45 -11 0 -23 5 -27 11 -4 6 -20 8 -40 4 -19 -3
-34 -2 -34 3 0 6 -21 10 -48 10 -39 0 -53 5 -81 31 -36 34 -58 39 -67 16 -8
-20 -44 -20 -44 0 0 19 -36 55 -55 55 -8 0 -15 -7 -15 -16 0 -12 -6 -15 -22
-9 -13 4 -32 7 -43 8 -24 1 -45 26 -38 44 3 7 -2 13 -12 13 -9 0 -14 -4 -11
-9 3 -5 -1 -12 -10 -15 -8 -3 -12 -10 -9 -16 3 -5 1 -10 -4 -10 -6 0 -11 6
-11 13 0 8 -9 22 -20 32 -15 14 -38 18 -105 19 -61 1 -86 5 -90 14 -3 8 -3 17
0 22 3 4 -11 11 -31 14 -19 4 -43 16 -51 26 -14 15 -20 17 -31 7 -13 -10 -14
-8 -8 11 7 22 5 23 -26 20 -29 -3 -33 0 -36 22 -7 50 -40 66 -57 28 -15 -32
-29 -32 -61 2 -16 16 -39 30 -51 30 -18 0 -23 6 -23 26 0 23 -2 25 -17 13 -17
-14 -85 -20 -76 -6 2 4 13 7 24 7 24 0 24 5 -1 30 -11 11 -39 23 -62 26 -24 4
-54 14 -68 23 -29 19 -96 41 -126 41 -15 0 -20 6 -20 22 1 15 -6 24 -18 26
-11 2 -38 16 -60 31 -23 14 -47 26 -55 26 -8 0 -16 6 -19 13 -2 7 2 10 12 6
21 -8 20 6 -4 36 -15 19 -22 22 -28 12 -7 -10 -17 -8 -45 10 -20 13 -36 28
-37 34 0 12 -42 34 -64 34 -7 0 -21 9 -31 20 -10 11 -23 20 -29 20 -7 0 -16
15 -21 32 -7 23 -17 34 -32 36 -14 2 -23 -2 -23 -9 0 -10 -5 -9 -16 3 -13 13
-14 19 -3 35 7 11 9 28 6 37 -7 17 -57 23 -57 6 0 -18 -22 -10 -27 10 -3 11
-15 23 -27 26 -11 3 -30 20 -42 37 -11 18 -26 31 -32 30 -7 -2 -12 2 -12 9 0
21 -42 98 -53 98 -7 0 -26 13 -43 30 -31 29 -32 29 -50 9 -21 -24 -26 -19 -31
28 -4 40 -20 58 -38 43 -16 -13 -39 5 -31 25 3 10 0 28 -9 41 -9 13 -13 24 -9
24 4 0 1 7 -6 15 -7 8 -16 12 -21 9 -14 -8 -49 15 -43 30 3 7 -9 26 -27 40
-22 19 -29 30 -21 35 16 10 -14 71 -34 71 -8 0 -28 7 -45 15 -24 13 -28 19
-19 35 13 25 13 30 -4 30 -19 0 -56 47 -56 71 0 10 -6 22 -14 26 -17 10 -31
53 -17 53 6 0 11 10 11 23 -1 21 -1 22 -15 3 -14 -19 -15 -18 -15 13 0 28 -3
31 -20 26 -23 -7 -42 32 -67 140 -18 81 -23 92 -33 75 -12 -19 -27 -5 -34 31
-3 18 -14 38 -24 45 -16 11 -15 13 11 23 31 12 35 38 10 57 -24 18 -33 17 -33
-2 0 -14 -3 -14 -16 -3 -9 7 -13 21 -10 35 9 33 -14 136 -32 150 -9 6 -17 23
-17 36 -1 13 -5 29 -9 36 -4 7 -1 15 8 18 21 8 20 46 -3 86 -10 18 -22 53 -25
77 -9 57 -13 63 -37 51 -10 -6 -19 -7 -19 -2 0 15 36 43 45 35 4 -5 5 3 2 17
-3 14 -9 56 -13 93 -6 59 -4 69 12 81 17 13 17 15 0 41 -15 22 -20 25 -28 14
-7 -10 -8 -4 -4 18 3 18 1 35 -4 38 -17 11 -11 23 9 18 11 -3 21 2 25 12 3 9
10 13 16 10 5 -3 10 1 10 11 0 12 -3 14 -13 6 -7 -6 -18 -7 -26 -2 -12 7 -12
14 -1 42 7 18 19 40 27 49 16 19 7 49 -13 49 -21 0 -17 9 21 47 33 33 38 53
12 53 -7 1 -19 16 -28 35 -14 29 -14 35 -2 35 7 0 16 -7 19 -15 8 -20 22 -19
26 2 2 10 -5 26 -16 37 -18 18 -18 20 -1 32 20 15 45 59 45 80 0 8 -10 14 -22
14 -20 0 -20 1 -5 18 10 10 17 22 17 25 0 4 9 16 20 27 22 22 26 60 10 76 -15
15 5 64 26 64 12 0 15 6 10 24 -4 15 0 28 9 36 8 7 15 21 15 31 0 10 5 21 10
24 6 3 7 17 4 30 -7 28 23 49 59 40 23 -6 25 -3 31 54 4 34 4 66 1 71 -3 5 0
7 7 5 9 -4 19 7 28 30 7 19 17 35 22 35 4 0 8 7 8 15 0 9 7 18 16 22 11 4 14
13 10 29 -5 18 -2 24 10 24 9 0 21 14 27 30 6 17 16 30 22 30 13 1 66 56 89
94 13 20 15 31 7 39 -7 7 -4 14 12 22 12 6 28 23 35 38 14 28 39 39 28 12 -3
-8 -2 -15 3 -15 13 0 27 22 42 65 7 22 22 51 34 65 12 14 27 37 35 53 8 17 16
23 20 16 4 -6 16 -9 26 -7 24 4 32 48 10 48 -9 0 -16 4 -16 9 0 5 21 9 46 8
45 -2 48 -1 69 40 29 54 51 75 78 78 12 1 25 3 30 4 4 0 7 12 7 26 0 19 -5 25
-21 25 -28 0 -19 24 11 28 12 2 26 -2 31 -9 6 -10 13 -10 34 -1 14 7 23 17 20
22 -3 6 1 10 9 10 10 0 13 6 10 15 -9 21 15 47 37 40 10 -4 26 2 36 12 10 10
35 28 55 40 31 18 37 19 42 6 10 -26 31 -8 31 28 0 29 3 34 21 31 14 -2 24 5
32 23 6 14 20 25 30 25 10 0 38 18 62 40 24 22 53 43 65 46 11 3 29 12 40 20
17 13 18 17 6 35 -7 13 -9 25 -4 30 6 6 15 -1 23 -16 14 -27 39 -27 71 1 8 8
28 14 43 14 20 0 29 6 33 20 3 12 23 30 44 41 22 11 39 24 39 30 0 6 7 8 16 5
9 -4 23 -1 31 5 10 9 17 9 24 2 17 -17 87 16 107 49 10 18 25 28 39 28 13 0
23 5 23 11 0 6 19 9 48 7 32 -2 46 -7 44 -16 -2 -10 2 -10 18 -2 27 15 25 39
-5 50 -14 5 -25 14 -25 20 0 13 17 13 25 0 14 -22 54 -10 71 21 12 25 18 29
25 18 6 -9 4 -15 -5 -17 -8 -2 -17 -10 -20 -18 -7 -17 25 -19 42 -2 9 9 12 8
12 -7 1 -17 4 -16 25 10 14 17 25 36 25 43 0 6 5 12 11 12 6 0 9 -6 6 -13 -8
-20 48 -9 69 14 9 10 29 19 44 19 36 0 65 23 57 44 -10 26 16 14 28 -12 12
-27 25 -28 25 -3 0 23 37 38 53 22 6 -6 22 -11 37 -11 14 0 31 -4 39 -9 23
-15 43 -1 37 24 -5 20 -1 23 32 28 20 2 41 1 45 -3 10 -9 115 45 138 72 11 11
20 19 22 17 1 -2 7 -13 13 -24 16 -29 49 -34 41 -6 -4 18 -1 19 25 14 16 -3
39 -1 51 4 12 6 37 15 56 21 30 10 34 9 38 -9 9 -31 39 -19 35 14 -3 29 12 37
22 12 6 -16 61 -21 70 -6 3 5 26 14 51 20 37 9 51 9 75 -4 37 -19 100 -20 100
-1 0 7 -13 19 -30 26 -16 7 -30 16 -30 21 0 14 17 11 34 -6 8 -9 19 -15 23
-14 35 6 63 -3 63 -20 0 -34 24 -43 51 -20 18 15 20 22 10 28 -16 11 -5 16 37
20 24 2 32 -2 32 -13 0 -9 8 -16 18 -16 19 1 72 44 72 60 0 19 29 10 45 -14
14 -21 19 -23 46 -13 24 9 35 8 64 -7 35 -19 65 -16 65 7 0 14 59 16 118 3 27
-6 32 -5 33 11 0 10 3 13 6 6 6 -15 59 -17 68 -3 11 18 32 11 38 -12 6 -22 6
-22 27 -3 20 18 22 18 31 3 13 -23 93 -34 124 -18 20 11 27 11 40 0 11 -9 18
-10 29 -1 10 8 28 6 72 -8 32 -11 61 -18 65 -16 3 3 14 -4 24 -15 23 -25 33
-25 54 1 15 19 20 20 40 8 19 -12 23 -12 32 4 14 24 33 22 26 -4 -7 -26 36
-50 55 -31 17 17 68 15 74 -2 5 -12 11 -13 30 -4 13 6 24 15 24 20 0 14 18 9
56 -17 43 -29 89 -33 103 -7 9 16 11 15 32 -6 14 -16 24 -20 29 -13 8 13 40 4
40 -11 0 -7 18 -9 45 -6 33 4 45 2 45 -8 0 -7 17 -18 39 -24 21 -5 50 -21 64
-34 15 -14 29 -20 32 -15 4 5 2 9 -3 9 -15 0 -8 63 7 68 10 3 11 -3 7 -25 -7
-29 -5 -31 31 -36 21 -4 48 -4 59 -1 17 4 23 0 28 -20 3 -14 13 -26 21 -26 8
0 15 -4 15 -9 0 -6 12 -6 31 -1 19 6 38 6 48 0 10 -5 23 -5 32 1 23 15 39 10
39 -11 0 -13 7 -20 19 -20 10 0 26 -12 36 -26 13 -20 19 -23 31 -13 8 6 14 18
14 27 0 12 5 10 24 -7 14 -13 30 -20 36 -16 7 4 18 -2 26 -14 8 -11 30 -23 49
-27 18 -3 36 -13 39 -21 5 -12 16 -14 50 -9 41 6 45 5 48 -16 2 -17 11 -24 31
-26 15 -2 27 1 27 7 0 6 7 11 15 11 8 0 15 -9 15 -19 0 -26 17 -36 36 -20 12
10 18 8 30 -10 16 -22 32 -23 97 -5 31 9 18 -12 -17 -26 -30 -11 -33 -15 -23
-32 10 -15 20 -17 54 -12 35 5 43 3 52 -15 13 -24 41 -28 41 -6 0 8 7 15 15
15 8 0 12 -6 9 -14 -3 -8 9 -22 30 -36 20 -12 36 -26 36 -31 0 -18 25 -9 35
13 16 36 36 35 29 -2 -5 -25 -2 -34 15 -46 12 -9 19 -20 15 -25 -13 -21 19
-40 63 -38 39 3 46 0 74 -34 27 -33 36 -37 77 -38 26 -1 39 -3 30 -6 -10 -2
-18 -8 -18 -13 0 -11 41 -35 54 -32 36 11 146 -76 146 -115 0 -19 52 -42 58
-25 2 6 8 12 14 12 5 0 8 -6 5 -12 -8 -25 13 -50 37 -44 16 4 30 -2 48 -22 28
-30 42 -62 28 -62 -6 0 -10 -4 -10 -10 0 -5 7 -10 15 -10 8 0 15 7 15 16 0 13
6 11 25 -10 13 -14 29 -27 35 -27 5 -1 15 -3 20 -4 6 -1 13 -3 17 -4 3 0 -2
-10 -12 -21 -22 -24 -11 -40 31 -45 15 -1 33 -10 40 -19 6 -9 16 -16 20 -15
31 5 39 -3 41 -42 1 -45 17 -62 47 -53 15 5 18 2 13 -14 -6 -27 18 -51 35 -34
18 18 30 14 23 -6 -10 -34 49 -112 84 -112 6 0 11 -8 11 -18 0 -21 31 -50 47
-45 19 7 27 -19 9 -29 -23 -13 -21 -48 4 -48 33 0 35 1 32 16 -2 8 2 14 7 14
16 0 33 -39 26 -59 -4 -13 0 -20 13 -23 19 -5 38 -61 26 -79 -3 -5 1 -9 9 -9
8 0 17 -9 20 -19 3 -12 15 -21 33 -23 28 -3 29 -5 28 -50 -1 -41 1 -47 20 -50
12 -2 22 -12 24 -23 2 -11 14 -31 27 -45 13 -14 29 -47 36 -75 16 -64 27 -78
56 -72 29 5 30 -12 3 -41 -17 -17 -17 -22 -6 -29 14 -8 46 -60 46 -75 0 -5 -7
-8 -16 -8 -12 0 -10 -7 10 -31 14 -17 26 -35 26 -40 0 -6 8 -8 18 -5 15 5 19
1 19 -26 1 -55 27 -136 48 -152 16 -12 18 -18 9 -34 -8 -12 -9 -24 -2 -36 7
-13 6 -25 -3 -43 -10 -19 -11 -28 -1 -44 7 -11 10 -24 7 -29 -4 -6 7 -7 26 -3
l31 6 -15 -29 c-15 -30 -13 -78 5 -101 6 -8 4 -24 -7 -47 -17 -35 -17 -35 12
-60 15 -14 31 -26 36 -26 4 0 7 -4 7 -10 0 -6 -9 -6 -26 0 -35 14 -34 14 -34
-26 0 -24 7 -41 21 -53 19 -15 20 -21 10 -40 -11 -19 -9 -28 13 -62 15 -21 33
-39 41 -39 17 0 35 30 35 59 0 11 9 22 20 26 24 8 26 28 5 45 -18 15 -20 40
-2 41 6 0 2 4 -11 9 -18 8 -21 15 -16 35 3 14 7 38 8 53 1 15 4 32 8 37 10 16
-8 94 -26 114 -20 22 -21 41 -1 41 18 0 20 17 3 22 -6 2 -11 19 -10 36 0 21
-10 49 -30 78 l-30 45 21 20 c11 11 21 25 21 32 -1 15 -30 55 -30 40 0 -6 -11
-8 -25 -5 -29 5 -29 5 -11 41 14 25 12 30 -19 77 -19 27 -34 53 -35 57 0 5 10
17 22 27 l22 17 -30 17 c-59 32 -74 52 -70 89 4 26 0 40 -15 53 -12 11 -17 24
-13 36 3 11 0 20 -10 24 -19 7 -21 35 -4 52 9 9 6 12 -15 12 -18 0 -30 6 -33
18 -3 9 -14 33 -25 53 -10 20 -19 44 -19 53 0 9 -5 16 -10 16 -6 0 -22 25 -36
55 -23 48 -44 71 -44 48 0 -5 -16 -9 -35 -10 -41 -3 -45 4 -10 17 19 7 25 17
25 40 0 25 -4 30 -24 30 -27 0 -71 62 -62 87 3 7 -1 16 -9 19 -8 4 -15 12 -15
19 0 6 -7 26 -16 43 -16 33 -44 43 -44 17 0 -24 -17 -17 -24 10 -4 14 -11 25
-16 25 -6 0 -10 11 -10 24 0 30 -18 44 -32 25 -7 -10 -8 -4 -4 19 5 28 2 35
-13 39 -11 3 -22 16 -25 29 -7 28 -49 42 -71 24 -12 -10 -15 -9 -15 4 0 9 5
16 10 16 17 0 11 36 -9 54 -10 9 -25 14 -35 10 -19 -7 -21 7 -3 25 16 17 -25
51 -63 51 -27 0 -94 54 -115 93 -5 11 -23 26 -40 35 -16 10 -36 25 -43 35 -9
11 -21 15 -36 11 -14 -3 -27 1 -35 10 -12 14 -10 16 9 16 21 0 22 1 8 23 -9
12 -24 22 -34 22 -22 0 -50 25 -57 52 -4 16 -5 16 -6 1 0 -10 -8 -18 -16 -18
-7 0 -18 -7 -23 -16 -7 -13 -11 -14 -17 -3 -5 8 -4 14 3 17 7 2 17 12 22 23 9
15 5 21 -19 33 -16 9 -34 29 -39 46 -13 35 -21 37 -45 10 -19 -23 -47 -17 -40
9 6 24 -22 45 -65 48 -43 3 -75 28 -49 39 32 12 17 22 -20 13 -32 -7 -41 -5
-53 10 -21 26 -60 37 -60 17 0 -9 -4 -16 -10 -16 -11 0 -13 12 -11 47 3 26
-15 39 -33 24 -17 -14 -29 -2 -15 15 18 22 -1 37 -38 31 -40 -7 -63 0 -63 19
0 7 -7 17 -16 22 -9 5 -15 13 -13 18 1 5 -20 12 -47 16 -27 4 -59 10 -73 13
-18 5 -22 3 -18 -9 4 -9 2 -16 -2 -16 -15 0 -22 32 -10 46 8 10 8 14 0 14 -6
0 -11 -4 -11 -10 0 -17 -28 1 -33 21 -4 16 -11 18 -31 13 -18 -4 -33 0 -52 15
-16 13 -35 19 -45 16 -14 -5 -22 1 -30 19 -7 14 -20 28 -31 31 -10 4 -18 13
-18 21 0 8 -5 14 -11 14 -5 0 -8 -4 -5 -9 6 -10 -69 -6 -85 4 -5 4 -9 13 -9
21 0 8 -4 14 -10 14 -5 0 -10 -7 -10 -15 0 -19 -11 -19 -36 0 -10 8 -26 15
-34 15 -8 0 -24 12 -36 27 -19 24 -24 26 -38 14 -13 -11 -20 -11 -28 -3 -7 7
-19 12 -28 12 -8 0 -24 9 -33 21 -14 16 -25 19 -49 14 -20 -5 -33 -3 -38 5 -6
10 -15 8 -35 -9 -36 -28 -40 -27 -40 11 0 26 -5 34 -28 42 -24 9 -31 7 -42 -7
-12 -17 -41 -25 -30 -8 3 6 -16 13 -42 16 -77 11 -109 24 -121 50 -13 27 -52
35 -52 10 0 -20 -27 -8 -33 16 -3 10 -10 19 -17 19 -6 0 -8 -4 -5 -10 9 -15
-18 -12 -41 4 -20 16 -98 12 -121 -6 -8 -7 -19 -3 -34 11 -13 12 -33 21 -45
21 -12 0 -24 4 -26 8 -5 13 -58 24 -58 13 0 -5 8 -12 18 -14 14 -4 14 -5 -3
-6 -11 0 -33 6 -49 14 -16 9 -46 15 -67 13 -21 -1 -44 4 -52 10 -12 10 -18 9
-31 -4 -23 -22 -92 -11 -116 19 -15 18 -22 20 -37 11 -10 -6 -33 -15 -51 -19
-29 -6 -32 -5 -32 19 0 33 -12 39 -41 18 -13 -9 -39 -17 -58 -18 -19 0 -39 -7
-45 -15 -6 -8 -29 -15 -51 -16 l-40 -2 29 15 c24 13 26 18 15 29 -12 12 -51
19 -86 16 -7 -1 -13 -8 -13 -16 0 -19 -29 -19 -54 0 -12 9 -25 11 -35 6 -31
-16 -75 -7 -86 17 -11 25 -25 29 -25 8 0 -24 -28 -40 -45 -26 -8 7 -26 9 -44
5 -24 -5 -32 -2 -41 14 -12 23 -35 29 -27 7z m167 -66 c0 -5 -2 -10 -4 -10 -3
0 -8 5 -11 10 -3 6 -1 10 4 10 6 0 11 -4 11 -10z m425 0 c3 -5 2 -10 -4 -10
-5 0 -13 5 -16 10 -3 6 -2 10 4 10 5 0 13 -4 16 -10z m38 -6 c3 -3 3 -13 0
-21 -5 -12 -7 -12 -14 -1 -15 23 -4 40 14 22z m-1253 -39 c0 -8 -4 -15 -10
-15 -5 0 -10 7 -10 15 0 8 5 15 10 15 6 0 10 -7 10 -15z m420 11 c0 -3 -4 -8
-10 -11 -5 -3 -10 -1 -10 4 0 6 5 11 10 11 6 0 10 -2 10 -4z m-595 -16 c3 -5
1 -10 -4 -10 -6 0 -11 5 -11 10 0 6 2 10 4 10 3 0 8 -4 11 -10z m1735 -5 c0
-8 -4 -15 -10 -15 -5 0 -10 7 -10 15 0 8 5 15 10 15 6 0 10 -7 10 -15z m-1270
-15 c0 -5 -4 -10 -10 -10 -5 0 -10 5 -10 10 0 6 5 10 10 10 6 0 10 -4 10 -10z
m1130 2 c0 -13 -12 -22 -22 -16 -10 6 -1 24 13 24 5 0 9 -4 9 -8z m240 -12 c0
-5 -5 -10 -11 -10 -5 0 -7 5 -4 10 3 6 8 10 11 10 2 0 4 -4 4 -10z m195 -20
c3 -5 -3 -10 -15 -10 -12 0 -18 5 -15 10 3 6 10 10 15 10 5 0 12 -4 15 -10z
m-2489 -76 c-3 -9 -6 -24 -6 -35 0 -10 -4 -19 -9 -19 -15 0 -21 30 -11 51 13
23 35 26 26 3z m3164 -89 c0 -8 -4 -15 -10 -15 -5 0 -10 7 -10 15 0 8 5 15 10
15 6 0 10 -7 10 -15z m230 -89 c0 -3 -4 -8 -10 -11 -5 -3 -10 -1 -10 4 0 6 5
11 10 11 6 0 10 -2 10 -4z m140 -30 c0 -14 -34 -28 -44 -18 -9 8 14 32 30 32
8 0 14 -6 14 -14z m420 -192 c0 -2 -9 -4 -21 -4 -11 0 -18 4 -14 10 5 8 35 3
35 -6z m-5610 -439 c0 -3 -9 0 -20 7 -11 7 -20 18 -20 25 0 8 8 5 20 -7 11
-11 20 -22 20 -25z m6395 -115 c3 -5 -3 -10 -14 -10 -12 0 -21 5 -21 10 0 6 6
10 14 10 8 0 18 -4 21 -10z m-6585 -76 c0 -8 -4 -14 -10 -14 -5 0 -10 9 -10
21 0 11 5 17 10 14 6 -3 10 -13 10 -21z m-300 -264 c0 -5 -5 -10 -10 -10 -6 0
-15 -12 -21 -27 -10 -26 -11 -27 -21 -9 -8 15 -8 21 1 24 7 2 17 10 24 18 14
16 27 18 27 4z m7380 -135 c0 -8 -7 -15 -15 -15 -8 0 -15 7 -15 15 0 8 7 15
15 15 8 0 15 -7 15 -15z m-7540 -51 c0 -8 -5 -12 -10 -9 -6 4 -8 11 -5 16 9
14 15 11 15 -7z m-297 -491 c-7 -3 -13 -12 -14 -21 0 -11 -2 -13 -6 -4 -6 15
17 46 26 36 3 -4 0 -9 -6 -11z m-13 -173 c0 -5 -7 -10 -15 -10 -8 0 -15 5 -15
10 0 6 7 10 15 10 8 0 15 -4 15 -10z m8266 -75 c-3 -9 -11 -13 -16 -10 -8 5
-7 11 1 21 14 18 24 11 15 -11z m-8326 -9 c0 -3 -4 -8 -10 -11 -5 -3 -10 -1
-10 4 0 6 5 11 10 11 6 0 10 -2 10 -4z m-25 -196 c3 -5 1 -10 -4 -10 -6 0 -11
5 -11 10 0 6 2 10 4 10 3 0 8 -4 11 -10z m8455 -25 c0 -8 -9 -15 -20 -15 -20
0 -26 11 -13 23 12 13 33 7 33 -8z m-8420 -75 c0 -5 -2 -10 -4 -10 -3 0 -8 5
-11 10 -3 6 -1 10 4 10 6 0 11 -4 11 -10z m8444 -60 c-14 -13 -42 -16 -45 -5
-3 14 45 37 50 24 2 -6 -1 -14 -5 -19z m-8484 -150 c0 -5 -4 -10 -10 -10 -5 0
-10 5 -10 10 0 6 5 10 10 10 6 0 10 -4 10 -10z m-10 -140 c0 -5 -4 -10 -10
-10 -5 0 -10 5 -10 10 0 6 5 10 10 10 6 0 10 -4 10 -10z m8550 -130 c0 -5 -4
-10 -10 -10 -5 0 -10 5 -10 10 0 6 5 10 10 10 6 0 10 -4 10 -10z m-75 -550 c3
-5 1 -10 -4 -10 -6 0 -11 5 -11 10 0 6 2 10 4 10 3 0 8 -4 11 -10z m-8291
-224 c-3 -9 -10 -16 -15 -16 -14 0 -11 28 4 33 16 6 19 3 11 -17z m8123 -242
c-9 -9 -28 6 -21 18 4 6 10 6 17 -1 6 -6 8 -13 4 -17z m-8002 -24 c3 -5 1 -10
-4 -10 -6 0 -11 5 -11 10 0 6 2 10 4 10 3 0 8 -4 11 -10z m219 -279 c3 -5 -1
-11 -9 -15 -9 -3 -15 0 -15 9 0 16 16 20 24 6z m7608 -33 c-6 -6 -15 -8 -19
-4 -4 4 -1 11 7 16 19 12 27 3 12 -12z m-108 -89 c-21 -24 -29 -18 -14 10 6
12 16 19 21 15 6 -4 4 -13 -7 -25z m-7424 -9 c0 -5 -4 -10 -10 -10 -5 0 -10 5
-10 10 0 6 5 10 10 10 6 0 10 -4 10 -10z m16 -67 c-10 -10 -19 5 -10 18 6 11
8 11 12 0 2 -7 1 -15 -2 -18z m7379 7 c3 -5 1 -10 -4 -10 -6 0 -11 5 -11 10 0
6 2 10 4 10 3 0 8 -4 11 -10z m-7135 -201 c0 -5 -7 -9 -15 -9 -9 0 -12 6 -9
15 6 15 24 11 24 -6z m6844 -103 c-3 -9 -10 -16 -15 -16 -14 0 -11 28 4 33 16
6 19 3 11 -17z m-6724 -76 c0 -5 -4 -10 -9 -10 -6 0 -13 5 -16 10 -3 6 1 10 9
10 9 0 16 -4 16 -10z m850 -530 c0 -5 -4 -10 -10 -10 -5 0 -10 5 -10 10 0 6 5
10 10 10 6 0 10 -4 10 -10z m5093 3 c-7 -2 -19 -2 -25 0 -7 3 -2 5 12 5 14 0
19 -2 13 -5z m-163 -100 c-1 -18 -18 -35 -24 -24 -4 6 -4 16 -1 21 7 12 25 13
25 3z m-389 -196 c-13 -13 -26 -3 -16 12 3 6 11 8 17 5 6 -4 6 -10 -1 -17z
m-3781 -37 c0 -5 -5 -10 -11 -10 -5 0 -7 5 -4 10 3 6 8 10 11 10 2 0 4 -4 4
-10z m140 -21 c0 -20 -21 -49 -35 -49 -8 0 -15 5 -15 10 0 6 4 10 9 10 5 0 11
9 14 20 5 21 27 28 27 9z m3190 -29 c0 -5 -5 -10 -11 -10 -5 0 -7 5 -4 10 3 6
8 10 11 10 2 0 4 -4 4 -10z m40 -4 c0 -11 -19 -15 -25 -6 -3 5 1 10 9 10 9 0
16 -2 16 -4z m-198 -78 c-7 -7 -12 -8 -12 -2 0 14 12 26 19 19 2 -3 -1 -11 -7
-17z m-491 -71 c-13 -13 -26 -3 -16 12 3 6 11 8 17 5 6 -4 6 -10 -1 -17z
m-1581 -52 c0 -8 -4 -15 -9 -15 -13 0 -22 16 -14 24 11 11 23 6 23 -9z m128
-4 c-13 -21 -28 -19 -28 5 0 8 9 14 20 14 17 0 19 -3 8 -19z m502 -10 c0 -6
-4 -13 -10 -16 -5 -3 -10 1 -10 9 0 9 5 16 10 16 6 0 10 -4 10 -9z m140 -51
c0 -5 -4 -10 -10 -10 -5 0 -10 5 -10 10 0 6 5 10 10 10 6 0 10 -4 10 -10z"/>
<path d="M3760 6400 c0 -5 5 -10 11 -10 5 0 7 5 4 10 -3 6 -8 10 -11 10 -2 0
-4 -4 -4 -10z"/>
<path d="M5945 6390 c-3 -5 3 -10 15 -10 12 0 18 5 15 10 -3 6 -10 10 -15 10
-5 0 -12 -4 -15 -10z"/>
<path d="M5231 6211 c-8 -5 -15 -27 -15 -53 -1 -37 2 -43 21 -46 17 -3 24 3
28 25 4 15 9 34 11 42 4 13 -12 41 -25 41 -3 0 -12 -4 -20 -9z"/>
<path d="M5000 6195 c-7 -9 -18 -63 -23 -121 -10 -101 -11 -106 -39 -120 -16
-8 -28 -23 -28 -34 0 -16 7 -20 35 -20 34 0 35 -1 35 -42 0 -115 36 -232 68
-226 24 5 47 55 33 72 -11 13 -30 129 -31 185 0 33 0 33 38 28 44 -7 65 3 60
29 -2 14 -16 21 -50 27 l-47 9 -3 111 c-3 93 -6 112 -19 115 -9 1 -22 -4 -29
-13z"/>
<path d="M3375 6140 c-3 -5 -1 -10 4 -10 6 0 11 5 11 10 0 6 -2 10 -4 10 -3 0
-8 -4 -11 -10z"/>
<path d="M4723 6038 c-54 -59 -72 -167 -35 -201 28 -25 72 -21 104 10 21 20
28 23 28 11 0 -9 8 -26 18 -38 16 -20 20 -21 34 -7 13 13 13 27 3 103 -7 50
-17 90 -24 92 -6 2 -25 15 -40 28 -36 30 -62 30 -88 2z m57 -74 c0 -22 -29
-74 -41 -74 -11 0 -3 52 13 83 10 20 28 14 28 -9z"/>
<path d="M5199 6023 c-7 -15 -12 -65 -13 -110 -1 -72 2 -85 21 -104 12 -12 28
-19 37 -16 12 5 14 27 13 129 -2 119 -3 123 -24 126 -17 3 -26 -4 -34 -25z"/>
<path d="M5377 6022 c-38 -24 -72 -96 -72 -155 0 -40 5 -52 25 -69 66 -53 230
39 230 129 0 34 -40 71 -100 93 -30 11 -55 20 -55 20 0 0 -13 -8 -28 -18z
m106 -81 c19 -3 4 -43 -25 -65 -70 -52 -104 -35 -78 41 10 27 14 29 53 27 23
0 45 -2 50 -3z"/>
<path d="M4224 6015 c-53 -37 -72 -160 -34 -222 39 -65 112 -88 168 -54 49 31
39 81 -13 60 -33 -13 -51 -10 -76 10 l-24 20 36 15 c45 19 89 69 89 103 0 37
-51 83 -92 83 -18 0 -43 -7 -54 -15z m83 -62 c4 -10 -3 -24 -21 -40 -33 -28
-46 -29 -46 -3 0 48 52 82 67 43z"/>
<path d="M4407 5996 c-8 -19 27 -161 43 -181 16 -19 50 -16 61 5 5 8 18 39 30
68 18 42 27 54 53 60 24 6 31 14 31 33 0 21 -5 24 -39 27 -41 4 -80 -22 -96
-63 l-8 -20 -7 20 c-18 53 -26 65 -44 65 -10 0 -21 -6 -24 -14z"/>
<path d="M5630 5995 c-20 -24 -59 -186 -50 -210 13 -35 45 -29 99 19 69 61
100 81 110 70 5 -5 14 -38 20 -74 11 -65 30 -94 57 -83 34 13 3 202 -36 223
-40 21 -79 12 -127 -32 l-46 -43 9 35 c14 59 11 104 -7 108 -9 1 -22 -4 -29
-13z"/>
<path d="M3524 5926 c-74 -33 -115 -138 -95 -249 29 -167 149 -282 261 -248
91 27 150 118 150 232 0 84 -23 160 -62 205 -43 48 -65 59 -128 60 -30 1 -64
4 -75 7 -11 4 -34 0 -51 -7z m57 -96 c7 0 33 7 56 16 39 15 44 15 68 0 39 -25
58 -73 63 -158 5 -89 -6 -126 -50 -163 -45 -38 -98 -34 -142 9 -70 71 -99 223
-55 296 19 31 22 33 34 17 7 -9 18 -17 26 -17z"/>
<path d="M5967 5913 c-25 -50 -59 -162 -55 -185 6 -42 48 -35 125 21 38 28 74
51 80 51 13 0 23 -34 23 -82 0 -58 16 -90 43 -86 21 3 22 7 22 90 0 72 -3 91
-21 115 -31 42 -78 43 -133 3 -23 -17 -45 -30 -47 -27 -2 2 3 23 11 47 8 24
13 52 9 62 -8 27 -42 22 -57 -9z"/>
<path d="M6638 5913 c-27 -31 -98 -181 -128 -271 -39 -117 -46 -174 -26 -191
20 -17 46 -7 46 17 0 36 84 262 136 364 29 58 32 98 6 98 -11 0 -26 -8 -34
-17z"/>
<path d="M3940 5903 c-47 -9 -63 -33 -57 -85 9 -76 66 -296 92 -355 21 -45 28
-54 47 -51 32 4 34 31 7 117 -23 72 -23 74 -5 85 73 43 115 109 116 181 0 88
-77 130 -200 108z m104 -73 c32 -12 33 -38 6 -96 -21 -42 -47 -62 -61 -47 -10
11 -38 141 -31 147 9 9 58 7 86 -4z"/>
<path d="M7105 5890 c3 -5 8 -10 11 -10 2 0 4 5 4 10 0 6 -5 10 -11 10 -5 0
-7 -4 -4 -10z"/>
<path d="M6335 5819 c-51 -36 -85 -88 -85 -129 0 -62 45 -84 112 -56 14 6 17
1 20 -31 2 -30 7 -38 23 -38 16 0 25 14 42 65 27 83 28 107 3 155 -31 61 -63
71 -115 34z m55 -68 c0 -17 -47 -61 -64 -61 -14 0 -4 26 21 52 31 33 43 35 43
9z"/>
<path d="M2954 5700 c-27 -11 -83 -76 -100 -116 -30 -73 -3 -154 66 -200 l40
-27 -6 -62 c-6 -55 -4 -65 15 -84 11 -11 28 -21 36 -21 21 0 78 53 100 94 l20
36 60 -6 c48 -5 63 -3 74 9 23 28 9 52 -29 53 -66 1 -66 1 -62 39 4 32 2 35
-21 35 -18 0 -31 -9 -43 -28 -12 -22 -22 -28 -40 -24 -28 5 -27 0 -13 113 13
99 7 151 -22 180 -20 20 -41 23 -75 9z m31 -138 c-3 -32 -9 -75 -12 -97 l-5
-39 -30 33 c-25 28 -29 40 -25 68 7 40 53 106 68 97 6 -3 8 -29 4 -62z m65
-236 c0 -3 -4 -8 -10 -11 -5 -3 -10 -1 -10 4 0 6 5 11 10 11 6 0 10 -2 10 -4z"/>
<path d="M6955 5648 c-84 -30 -85 -69 -5 -202 69 -115 75 -147 30 -166 -39
-16 -117 -8 -134 15 -17 23 -50 15 -54 -13 -2 -14 7 -33 27 -52 27 -27 35 -30
96 -30 78 0 127 18 152 56 35 54 23 94 -78 271 -13 23 -20 45 -16 49 12 12
120 17 147 6 20 -7 25 -16 25 -42 0 -41 17 -48 44 -19 39 42 26 91 -30 119
-43 22 -152 26 -204 8z"/>
<path d="M2190 5630 c0 -5 4 -10 9 -10 6 0 13 5 16 10 3 6 -1 10 -9 10 -9 0
-16 -4 -16 -10z"/>
<path d="M8030 5550 c0 -5 5 -10 11 -10 5 0 7 5 4 10 -3 6 -8 10 -11 10 -2 0
-4 -4 -4 -10z"/>
<path d="M7333 5468 c-16 -18 -47 -55 -67 -83 -35 -46 -41 -50 -79 -50 -35 0
-42 -3 -42 -19 0 -15 23 -38 42 -41 1 -1 -20 -45 -47 -100 -52 -103 -63 -158
-34 -169 26 -10 64 20 64 50 0 20 64 155 86 183 2 2 20 -8 39 -23 64 -49 94 0
31 50 l-34 28 38 55 c22 31 48 67 59 81 52 64 1 98 -56 38z"/>
<path d="M2441 5372 c-13 -25 12 -77 86 -180 60 -83 172 -205 204 -223 22 -11
49 -2 49 18 0 8 -32 49 -70 91 -39 42 -99 117 -133 166 -106 152 -117 163
-136 128z"/>
<path d="M7428 5253 c-38 -45 -79 -127 -76 -152 4 -37 36 -38 105 -5 44 20 60
24 72 15 27 -19 40 -23 56 -17 22 8 18 43 -6 67 -18 18 -30 21 -75 17 l-53 -5
15 28 c20 39 18 69 -4 69 -11 0 -26 -8 -34 -17z"/>
<path d="M4730 5150 c-11 -7 -11 -10 -2 -10 10 0 10 -5 2 -20 -6 -12 -16 -17
-26 -13 -10 4 -20 -1 -26 -10 -5 -10 -14 -17 -21 -17 -7 0 -32 -18 -57 -40
-25 -22 -39 -40 -32 -40 6 0 12 -8 12 -17 -1 -17 -1 -17 -11 0 -16 27 -39 20
-45 -13 -5 -21 -12 -30 -25 -30 -12 0 -19 -7 -19 -20 0 -14 -7 -20 -21 -20
-16 0 -19 -4 -14 -20 5 -15 2 -20 -14 -20 -13 0 -24 -11 -32 -35 -7 -19 -19
-35 -25 -35 -7 0 -15 -8 -19 -19 -3 -10 -19 -31 -35 -47 -16 -16 -30 -34 -30
-41 0 -6 -8 -18 -18 -25 -29 -21 -34 -35 -20 -60 7 -13 14 -25 15 -26 1 -2 13
9 27 25 70 79 87 103 80 114 -4 6 7 25 24 43 62 62 122 132 122 143 0 3 8 12
18 19 9 7 17 18 17 26 0 7 8 13 17 13 9 0 35 19 58 43 23 23 43 42 45 42 3 0
29 12 60 26 36 17 63 24 79 20 14 -3 35 -2 48 3 13 5 47 5 77 0 30 -4 59 -5
64 -2 15 9 224 5 245 -5 9 -4 31 -6 47 -4 66 8 127 1 158 -18 18 -11 48 -20
68 -20 20 0 42 -7 49 -15 7 -8 17 -15 22 -15 5 0 20 -11 34 -25 14 -14 30 -25
36 -25 6 0 41 -20 77 -44 36 -24 75 -47 86 -50 11 -4 27 -21 36 -39 11 -22 26
-35 50 -41 19 -6 39 -15 44 -22 14 -16 115 -84 126 -84 5 0 9 -15 9 -34 0 -18
6 -51 13 -72 14 -42 14 -97 -1 -102 -9 -3 -7 -116 2 -130 2 -4 -2 -22 -9 -40
-10 -22 -21 -32 -37 -33 -50 -2 -126 -5 -182 -7 -48 -2 -57 -5 -52 -17 3 -9
-1 -18 -9 -21 -10 -4 -15 -20 -15 -44 0 -22 -5 -40 -12 -43 -10 -3 -10 -7 1
-21 12 -14 11 -19 -4 -36 -10 -11 -24 -20 -32 -20 -7 0 -13 -5 -13 -11 0 -6
-16 1 -35 15 -19 15 -39 25 -44 21 -5 -3 -12 -1 -16 5 -3 5 -17 10 -30 10 -14
0 -40 9 -60 20 -20 11 -46 20 -58 20 -13 0 -33 9 -45 21 -12 11 -26 17 -31 14
-5 -3 -12 -1 -15 4 -3 5 -26 12 -51 15 -24 4 -74 23 -110 42 -37 19 -77 34
-90 34 -13 0 -27 5 -30 10 -3 6 -17 10 -30 10 -13 0 -27 5 -30 10 -3 6 -18 10
-33 10 -15 0 -54 14 -87 30 -33 16 -70 30 -83 30 -22 0 -29 3 -89 34 -17 9
-38 16 -47 16 -9 0 -16 5 -16 11 0 7 -12 10 -30 7 -18 -3 -31 0 -34 9 -3 7
-16 13 -30 13 -14 0 -28 5 -31 10 -4 6 -10 8 -15 5 -5 -3 -22 1 -38 9 -16 8
-32 12 -36 9 -3 -4 -12 1 -19 11 -7 10 -17 16 -22 15 -18 -3 -75 13 -75 22 0
5 -17 8 -37 6 -42 -3 -59 -32 -26 -43 10 -3 27 -10 38 -14 11 -5 38 -11 59
-15 21 -4 45 -13 53 -21 9 -8 23 -12 33 -9 9 3 23 -1 30 -10 7 -8 23 -15 35
-15 12 0 39 -7 60 -16 20 -8 40 -13 43 -10 3 3 11 -3 19 -14 9 -13 26 -20 46
-20 18 0 41 -6 52 -14 11 -7 36 -17 55 -21 19 -4 59 -20 88 -36 29 -16 59 -29
66 -29 8 0 40 -8 72 -19 103 -32 114 -34 107 -14 -4 11 -3 14 5 9 7 -4 12 -13
12 -20 0 -8 20 -20 44 -27 29 -8 42 -17 39 -26 -3 -7 0 -13 6 -13 6 0 11 5 11
11 0 7 8 6 23 -3 12 -8 36 -18 52 -22 17 -3 41 -9 55 -12 14 -3 29 -12 33 -20
4 -8 19 -14 33 -14 13 0 45 -10 69 -21 25 -12 48 -19 52 -16 3 3 12 -1 21 -9
8 -9 23 -13 33 -11 10 3 23 -1 30 -9 6 -8 26 -14 44 -14 19 0 35 -5 37 -12 2
-6 10 -8 17 -4 7 5 10 14 7 22 -3 8 1 14 9 14 16 0 32 49 34 109 2 46 22 73
51 69 8 -2 22 2 30 7 8 5 49 11 90 13 41 2 89 4 105 5 l30 2 1 115 c1 63 6
134 12 158 7 29 7 55 0 80 -6 20 -11 46 -13 57 -1 11 -5 29 -9 40 -8 24 -100
91 -120 87 -7 -1 -16 7 -19 18 -3 11 -13 23 -24 27 -39 16 -83 48 -83 60 0 7
-16 15 -36 19 -21 4 -38 14 -42 25 -9 22 -77 69 -101 69 -10 0 -30 11 -45 24
-39 33 -104 66 -130 66 -12 0 -33 8 -46 17 -14 10 -25 16 -25 15 0 -2 -13 2
-30 8 -16 7 -64 13 -105 14 -41 1 -85 7 -97 14 -16 9 -24 9 -29 1 -4 -7 -22
-9 -50 -4 -28 4 -50 2 -63 -7 -17 -10 -25 -10 -41 0 -15 9 -26 10 -40 2 -22
-12 -80 -13 -80 -2 0 10 -76 10 -86 0 -14 -14 -74 -9 -80 7 -7 17 -13 18 -34
5z"/>
<path d="M8520 5120 c0 -5 5 -10 10 -10 6 0 10 5 10 10 0 6 -4 10 -10 10 -5 0
-10 -4 -10 -10z"/>
<path d="M2384 5084 c-35 -53 4 -176 64 -201 32 -13 37 -13 61 5 18 13 27 30
29 56 3 35 4 36 25 21 28 -19 56 -19 64 1 4 11 -14 36 -57 79 -61 61 -64 63
-116 64 -47 0 -56 -3 -70 -25z m75 -48 c17 -20 26 -86 13 -86 -14 0 -28 25
-37 68 -7 34 4 42 24 18z"/>
<path d="M7650 5068 c-46 -13 -99 -54 -111 -85 -19 -51 13 -93 71 -93 l38 0
-14 -30 c-9 -16 -13 -34 -9 -40 15 -24 44 -6 93 56 51 65 52 67 46 118 -4 33
-13 57 -26 69 -22 19 -37 20 -88 5z m40 -78 c-13 -24 -75 -42 -82 -24 -4 8 62
44 80 44 10 0 10 -5 2 -20z"/>
<path d="M2090 5015 c-18 -22 -4 -48 68 -132 59 -69 60 -69 46 -102 -8 -18
-11 -37 -8 -42 8 -14 36 -11 55 7 15 14 24 9 105 -56 95 -76 127 -91 150 -69
21 21 6 58 -30 73 -17 8 -62 40 -99 71 l-68 57 36 34 c20 18 35 39 33 46 -8
24 -45 19 -78 -8 l-32 -28 -77 82 c-42 46 -79 83 -82 82 -4 0 -12 -7 -19 -15z"/>
<path d="M7980 4983 c-14 -9 -53 -42 -88 -72 -61 -53 -65 -54 -95 -43 -26 10
-34 9 -46 -3 -13 -13 -12 -17 8 -39 l23 -24 -54 -69 c-73 -92 -88 -118 -88
-148 0 -52 52 -44 80 12 8 16 39 60 69 97 l54 67 31 -30 c60 -58 92 -24 41 43
l-24 32 74 74 c75 74 89 102 59 114 -20 8 -16 9 -44 -11z"/>
<path d="M1947 4893 c-22 -21 19 -93 53 -93 20 0 34 25 24 43 -24 43 -61 67
-77 50z"/>
<path d="M2060 4765 c-19 -23 -4 -49 66 -115 56 -52 71 -61 97 -58 40 4 48 33
15 56 -12 9 -51 42 -85 74 -34 32 -67 58 -72 58 -4 0 -14 -7 -21 -15z"/>
<path d="M7990 4708 c-33 -17 -51 -35 -67 -68 -35 -67 -31 -105 16 -151 43
-43 65 -49 80 -20 8 14 6 23 -10 37 -31 28 -40 51 -33 79 l6 24 33 -25 c51
-39 94 -42 133 -9 50 42 43 113 -15 143 -34 19 -95 14 -143 -10z m120 -53 c30
-36 -15 -59 -58 -29 -36 25 -27 35 34 43 6 0 17 -6 24 -14z"/>
<path d="M1928 4690 c-7 -11 -18 -20 -25 -20 -19 0 -63 -60 -63 -87 0 -68 93
-173 154 -173 46 0 61 22 61 87 l0 54 53 -55 c45 -47 53 -60 50 -88 -3 -28 -7
-33 -30 -33 -54 0 -63 -46 -13 -65 35 -13 71 3 95 42 50 82 7 155 -178 306
-69 57 -86 62 -104 32z m43 -97 c6 -16 14 -48 16 -73 l6 -45 -33 30 c-42 39
-53 62 -46 91 9 34 43 32 57 -3z"/>
<path d="M3446 4681 c-3 -4 -42 -6 -88 -3 -128 6 -188 -28 -169 -95 14 -49 40
-81 72 -88 16 -4 34 -15 39 -26 6 -10 21 -19 34 -19 13 0 27 -7 30 -16 3 -8
10 -12 16 -9 6 3 13 0 16 -9 3 -8 12 -12 20 -9 7 3 28 -7 45 -21 20 -17 38
-25 50 -21 12 4 21 1 25 -9 3 -8 24 -18 47 -21 23 -4 52 -13 63 -20 12 -8 45
-17 72 -21 29 -3 53 -12 56 -20 3 -9 21 -14 46 -14 30 0 40 -4 40 -16 0 -10 6
-14 15 -10 8 3 29 -1 47 -8 38 -15 118 -20 118 -7 0 5 -6 13 -13 19 -19 16
-200 73 -214 67 -7 -2 -13 1 -13 8 0 13 -65 37 -100 37 -11 0 -20 4 -20 8 0 4
-16 8 -36 9 -20 1 -40 6 -44 13 -4 6 -13 12 -21 14 -8 1 -24 7 -36 14 -12 7
-30 12 -41 12 -11 0 -25 7 -32 15 -7 8 -19 15 -27 15 -21 0 -64 31 -57 42 7
11 103 1 119 -13 6 -4 20 -8 30 -8 26 0 183 -44 214 -60 13 -7 33 -14 45 -16
72 -9 122 -19 131 -25 6 -4 28 -6 49 -5 24 2 44 -2 53 -11 17 -16 33 -18 33
-4 0 6 8 6 23 0 12 -5 56 -16 97 -26 41 -9 81 -22 89 -28 11 -8 15 -8 18 1 3
9 10 9 24 3 10 -6 27 -14 38 -19 10 -6 29 -7 41 -4 16 4 27 0 36 -12 7 -9 19
-15 27 -12 7 3 36 0 63 -5 50 -11 92 -18 131 -22 12 -1 28 -8 36 -15 8 -6 19
-11 23 -9 15 4 108 -13 119 -22 10 -8 67 -19 116 -23 14 -1 33 -8 42 -15 8 -7
18 -9 21 -4 7 11 85 7 97 -5 13 -13 71 -1 77 15 2 6 -3 12 -11 12 -9 0 -17 5
-19 12 -2 6 -31 13 -69 15 -35 3 -71 7 -79 10 -8 4 -38 7 -66 9 -31 1 -70 12
-102 28 -31 16 -53 22 -57 16 -4 -6 -10 -8 -15 -5 -4 2 -25 7 -46 11 -21 3
-55 13 -76 21 -29 12 -41 13 -52 4 -10 -8 -16 -9 -21 -1 -3 5 -16 10 -29 10
-12 0 -27 5 -34 12 -6 6 -34 13 -62 14 -28 1 -56 6 -63 12 -14 11 -55 21 -123
28 -27 3 -56 7 -65 8 -9 1 -28 10 -42 19 -14 9 -45 18 -69 21 -24 2 -74 10
-113 17 -38 7 -82 12 -97 12 -16 0 -28 3 -28 6 0 4 -16 5 -36 3 -20 -3 -39 0
-43 5 -11 17 -72 42 -87 36 -8 -3 -20 0 -28 6 -8 7 -18 11 -22 10 -5 -2 -29 4
-54 11 -25 8 -49 14 -55 15 -5 0 -16 4 -23 9 -12 7 -40 12 -107 19 -16 2 -21
-5 -23 -30 -3 -34 -18 -44 -28 -19 -3 8 -17 19 -32 26 -35 15 -68 58 -54 72
14 14 99 32 145 30 27 -1 37 3 37 13 0 19 0 19 39 -1 22 -11 36 -13 43 -6 6 6
22 6 46 0 20 -5 54 -10 75 -11 20 0 37 -4 37 -8 0 -4 10 -7 23 -7 28 0 65 -7
97 -17 13 -4 42 -9 65 -10 22 -1 58 -7 80 -13 22 -7 82 -14 133 -18 76 -5 92
-3 92 9 0 7 -9 22 -20 32 -18 16 -23 17 -46 5 -21 -12 -27 -12 -34 -1 -4 8
-13 10 -19 7 -6 -4 -24 -1 -40 7 -16 8 -57 15 -91 16 -34 1 -71 6 -82 12 -10
6 -41 12 -66 14 -26 2 -90 8 -142 15 -151 18 -169 19 -174 11z"/>
<path d="M3340 4559 c0 -5 5 -7 10 -4 6 3 10 8 10 11 0 2 -4 4 -10 4 -5 0 -10
-5 -10 -11z"/>
<path d="M1657 4553 c-24 -23 21 -83 61 -83 31 0 28 30 -6 63 -28 27 -43 33
-55 20z"/>
<path d="M4265 4541 c-3 -5 -1 -12 5 -16 5 -3 10 1 10 9 0 18 -6 21 -15 7z"/>
<path d="M8219 4541 c-73 -23 -139 -81 -139 -122 0 -36 42 -69 86 -69 19 0 34
-3 34 -8 0 -17 -106 -76 -138 -76 -38 0 -55 19 -41 47 7 13 7 23 -2 33 -17 20
-35 17 -53 -8 -25 -35 -20 -76 13 -109 60 -60 163 -29 319 97 76 62 97 94 73
109 -5 3 -12 18 -16 34 -12 56 -77 91 -136 72z m62 -71 c26 -15 24 -46 -3 -54
-13 -3 -45 -6 -71 -6 -58 0 -59 15 -1 47 45 26 49 27 75 13z"/>
<path d="M6165 4480 c3 -5 8 -10 11 -10 2 0 4 5 4 10 0 6 -5 10 -11 10 -5 0
-7 -4 -4 -10z"/>
<path d="M1777 4443 c-34 -34 112 -163 184 -163 34 0 48 30 22 48 -10 7 -52
37 -93 67 -71 52 -98 64 -113 48z"/>
<path d="M8486 4369 c-28 -22 -30 -27 -17 -47 10 -16 47 -8 81 18 20 15 22 20
11 34 -18 22 -43 20 -75 -5z"/>
<path d="M1547 4350 c-64 -56 -56 -131 24 -237 l41 -54 -86 57 c-84 56 -110
62 -122 29 -10 -24 11 -42 155 -137 207 -136 272 -162 279 -112 2 14 -15 37
-55 74 -84 79 -172 179 -194 222 -35 68 -16 128 40 128 59 0 164 -90 202 -173
23 -52 24 -96 2 -142 -16 -33 -16 -37 0 -52 15 -16 18 -15 38 3 38 34 52 73
46 129 -15 142 -145 280 -275 292 -55 5 -61 4 -95 -27z"/>
<path d="M8340 4285 c-68 -35 -130 -97 -130 -129 0 -41 25 -42 70 -2 21 19 59
47 82 62 57 35 70 52 57 75 -12 24 -24 23 -79 -6z"/>
<path d="M4160 4235 c0 -9 -7 -18 -15 -21 -8 -4 -15 -12 -15 -19 0 -7 -7 -18
-15 -25 -9 -7 -13 -20 -10 -28 3 -8 1 -20 -4 -26 -5 -6 -23 -51 -41 -101 -17
-49 -39 -99 -49 -110 -10 -11 -27 -38 -37 -59 -22 -47 -62 -92 -79 -88 -7 1
-20 -9 -30 -24 -11 -18 -23 -24 -36 -21 -12 3 -23 -2 -29 -14 -6 -10 -17 -19
-25 -19 -18 0 -70 -48 -62 -57 4 -3 2 -12 -3 -18 -6 -7 -7 -32 -4 -59 5 -36
11 -46 25 -46 11 0 19 -4 19 -9 0 -5 8 -11 18 -13 16 -5 18 -15 17 -74 -1 -41
-6 -69 -13 -72 -7 -2 -12 -16 -12 -30 0 -20 18 -46 63 -93 63 -67 114 -99 99
-62 -11 29 -44 72 -81 108 l-34 33 27 56 c20 41 25 65 21 89 -8 40 -68 112
-87 104 -11 -4 -14 3 -13 26 2 47 22 77 50 77 18 0 23 4 18 16 -5 13 -2 15 14
10 13 -4 27 2 43 19 13 14 33 25 44 25 24 1 56 22 56 38 0 6 -8 16 -17 22 -15
8 -13 9 10 4 21 -5 27 -3 27 10 0 20 27 63 57 93 13 12 23 34 23 48 0 14 4 25
9 25 12 0 26 39 23 61 -2 8 7 24 18 34 11 10 20 28 20 39 0 37 27 101 44 104
19 4 19 3 6 36 -10 28 -40 36 -40 11z"/>
<path d="M6052 4171 c3 -35 -29 -69 -62 -66 -14 2 -25 4 -25 5 0 2 -9 4 -20 5
-11 2 -29 6 -40 10 -16 5 -17 5 -5 -4 13 -9 12 -12 -5 -25 -26 -19 -7 -44 21
-28 13 7 30 5 62 -9 24 -11 54 -19 67 -19 28 0 50 -24 39 -42 -5 -7 -9 -17 -9
-23 0 -6 -33 -9 -83 -8 -66 2 -82 0 -82 -12 0 -9 -6 -12 -17 -9 -15 5 -15 4
-3 -5 8 -5 46 -15 85 -21 38 -6 82 -15 97 -19 36 -12 54 9 62 74 6 48 5 51
-28 78 -19 15 -40 27 -45 27 -6 0 -11 5 -11 11 0 5 4 8 9 5 11 -7 41 37 41 61
0 10 -12 23 -26 30 -24 11 -25 10 -22 -16z"/>
<path d="M8378 4158 c-55 -14 -92 -62 -84 -107 3 -20 14 -47 24 -61 41 -55
147 -91 147 -49 0 9 -20 32 -45 51 -56 42 -67 83 -24 94 15 4 43 7 63 8 31 1
35 -2 36 -24 0 -18 6 -26 22 -28 16 -2 24 4 33 32 14 44 2 70 -41 85 -38 13
-80 13 -131 -1z"/>
<path d="M5017 4067 c-7 -18 16 -68 42 -91 11 -11 21 -29 21 -42 0 -13 5 -26
10 -29 6 -4 10 -14 9 -23 -1 -10 2 -25 6 -36 5 -11 3 -26 -4 -38 -6 -10 -8
-24 -4 -31 9 -15 5 -48 -9 -64 -5 -7 -7 -16 -4 -22 4 -5 0 -16 -8 -24 -10 -9
-13 -30 -10 -65 2 -28 -1 -54 -7 -58 -14 -9 -1 -62 22 -85 32 -32 62 -33 89
-5 13 15 28 26 33 26 15 0 47 41 47 60 0 9 11 26 25 38 14 12 25 25 25 29 0 5
15 14 33 21 17 7 40 18 49 23 10 5 20 9 22 9 11 0 56 -55 56 -68 0 -7 8 -24
17 -38 13 -21 14 -30 5 -45 -7 -10 -12 -28 -12 -40 0 -11 -10 -34 -22 -50 -34
-45 -137 -149 -147 -149 -5 0 -11 -9 -14 -21 -5 -18 -2 -20 16 -15 12 4 34 9
50 12 15 4 27 12 27 18 1 6 21 31 46 56 80 79 125 211 90 261 -9 13 -16 29
-16 37 0 7 -9 22 -19 34 -11 11 -17 26 -15 33 8 20 -131 18 -147 -2 -7 -8 -25
-21 -41 -29 -15 -8 -31 -26 -34 -39 -3 -14 -12 -25 -19 -25 -8 0 -16 -13 -20
-30 -4 -16 -10 -30 -14 -30 -4 0 -16 -8 -27 -19 -31 -29 -61 -35 -72 -15 -7
13 -4 23 10 38 14 16 18 29 13 53 -3 18 -1 41 4 52 6 10 12 40 14 65 3 25 8
51 13 58 12 17 10 97 -4 131 -7 15 -11 31 -10 35 4 11 -43 102 -51 102 -4 0
-13 11 -19 25 -12 27 -37 33 -45 12z"/>
<path d="M4342 4020 c1 -22 6 -40 12 -41 6 -1 27 -3 46 -5 48 -5 80 4 80 21 0
13 -7 17 -64 30 -15 3 -35 13 -43 20 -24 24 -33 17 -31 -25z"/>
<path d="M4465 3960 c4 -6 11 -8 16 -5 14 9 11 15 -7 15 -8 0 -12 -5 -9 -10z"/>
<path d="M6006 3841 c-19 -36 -8 -198 16 -228 5 -6 8 -20 7 -30 -2 -10 2 -28
9 -40 11 -19 10 -22 -3 -17 -22 9 -18 -14 5 -28 11 -7 20 -20 20 -28 0 -8 7
-24 15 -34 8 -11 15 -30 15 -41 0 -12 11 -34 25 -49 14 -15 25 -31 25 -37 0
-16 64 -108 76 -108 6 -1 16 -12 23 -25 17 -32 64 -65 101 -72 41 -9 38 4 -15
54 -25 23 -45 47 -45 52 0 6 -6 10 -13 10 -7 0 -21 16 -31 35 -11 19 -23 35
-28 35 -5 0 -16 16 -24 35 -8 19 -18 35 -23 35 -4 0 -13 19 -20 43 -7 23 -24
67 -39 97 -14 30 -27 69 -28 85 -5 55 -17 120 -25 136 -4 8 -3 33 2 55 11 41
-1 94 -20 94 -6 0 -17 -13 -25 -29z"/>
<path d="M4270 3760 c0 -25 4 -30 24 -30 14 0 28 -4 31 -10 8 -13 72 -13 80 0
7 12 -72 63 -85 55 -6 -4 -10 -1 -10 4 0 6 -9 11 -20 11 -16 0 -20 -7 -20 -30z"/>
<path d="M665 3660 c3 -5 8 -10 11 -10 2 0 4 5 4 10 0 6 -5 10 -11 10 -5 0 -7
-4 -4 -10z"/>
<path d="M5060 3439 c0 -5 5 -7 10 -4 6 3 10 8 10 11 0 2 -4 4 -10 4 -5 0 -10
-5 -10 -11z"/>
<path d="M3033 3223 c-3 -9 -1 -43 6 -77 6 -33 12 -77 12 -96 2 -67 -10 -281
-17 -291 -3 -5 1 -21 10 -34 19 -29 20 -35 4 -35 -10 0 -13 -34 -12 -140 0
-77 -3 -140 -8 -140 -11 0 1 -75 18 -118 8 -19 24 -36 41 -43 15 -6 36 -18 46
-26 9 -9 20 -13 23 -10 4 3 16 0 27 -8 12 -8 31 -12 44 -9 14 4 23 2 23 -5 0
-8 14 -10 40 -7 22 3 42 1 45 -5 4 -5 19 -9 35 -9 16 0 31 -4 34 -9 3 -5 24
-9 47 -9 22 -1 53 -3 68 -7 33 -7 109 23 143 57 15 15 24 37 25 65 2 25 13 58
28 79 14 20 25 45 25 55 0 10 4 20 9 23 5 3 7 15 4 26 -3 11 -1 26 5 33 6 7
14 32 18 55 3 23 13 47 20 53 8 6 14 23 14 37 0 14 7 33 16 43 8 9 16 31 16
48 1 18 5 34 10 37 4 3 8 14 8 25 0 10 4 19 9 19 6 0 13 21 17 48 4 26 15 58
25 71 24 30 24 47 2 60 -17 10 -17 10 0 11 11 0 17 8 17 25 0 14 -4 25 -10 25
-5 0 -10 7 -10 16 0 11 -5 14 -16 10 -10 -4 -23 3 -36 19 -11 14 -27 25 -37
25 -9 0 -33 8 -53 19 -20 10 -55 18 -77 18 -22 0 -47 6 -56 13 -8 7 -25 10
-39 6 -13 -3 -57 3 -97 14 -98 26 -149 31 -156 14 -4 -11 -9 -11 -26 0 -28 18
-150 38 -181 30 -13 -3 -40 -1 -60 5 -31 8 -38 7 -43 -6z m227 -62 c3 -4 32
-8 65 -9 83 -2 111 -6 129 -21 10 -9 28 -11 51 -7 20 4 44 2 56 -5 12 -6 58
-13 102 -16 65 -4 85 -9 99 -25 10 -11 24 -18 32 -15 7 3 33 -4 56 -15 34 -17
40 -25 35 -42 -3 -12 -9 -38 -12 -58 -3 -21 -10 -38 -14 -38 -5 0 -9 -9 -9
-20 0 -11 -4 -20 -9 -20 -6 0 -13 -20 -16 -45 -4 -24 -13 -50 -21 -56 -8 -6
-14 -26 -14 -45 0 -18 -4 -35 -9 -39 -5 -3 -17 -29 -26 -58 -9 -28 -21 -62
-27 -74 -6 -13 -8 -26 -5 -30 4 -3 0 -17 -8 -30 -9 -13 -13 -28 -10 -33 3 -6
1 -10 -6 -10 -7 0 -10 -11 -7 -30 3 -16 1 -30 -3 -30 -20 0 -48 -73 -53 -137
-1 -20 -9 -27 -66 -52 -13 -6 -95 -6 -95 0 0 2 -30 7 -70 10 -16 1 -36 7 -43
12 -6 5 -32 10 -56 11 -24 0 -48 4 -52 9 -12 12 -26 8 -17 -5 4 -7 -5 -5 -20
5 -14 9 -33 17 -42 17 -25 0 -83 43 -87 65 -2 11 -2 119 0 240 2 121 3 247 2
279 -1 32 3 62 9 65 6 4 7 20 1 45 -5 23 -4 49 2 68 8 21 7 33 -1 41 -15 15
-14 44 2 51 8 3 6 10 -8 21 -20 16 -20 17 -1 30 14 10 38 13 90 9 39 -3 73 -9
76 -13z"/>
<path d="M3300 3046 c0 -19 23 -46 38 -46 9 -1 30 -12 47 -25 28 -23 29 -26
17 -58 -7 -18 -12 -36 -12 -40 0 -11 35 -8 46 3 31 31 77 -38 75 -113 -1 -60
-5 -67 -40 -67 -28 0 -47 19 -76 75 -15 29 -37 25 -46 -8 -10 -37 -27 -57 -50
-57 -25 0 -35 60 -20 121 12 47 9 69 -10 69 -8 0 -38 -59 -66 -129 -22 -57 25
-221 83 -289 20 -23 34 -51 34 -66 0 -14 4 -26 9 -26 13 0 51 49 51 65 0 7 7
18 16 25 13 11 19 10 36 -8 16 -15 21 -33 20 -67 0 -26 -5 -52 -11 -58 -14
-14 -14 -54 0 -62 13 -9 38 25 60 80 30 73 35 116 21 183 -16 81 -4 112 50
125 47 11 53 35 32 128 -20 89 -74 159 -159 207 -54 30 -145 54 -145 38z m145
-54 c90 -55 140 -128 151 -224 7 -59 -2 -73 -46 -80 -17 -2 -31 -14 -43 -39
-15 -32 -16 -40 -3 -82 11 -38 12 -58 1 -112 -12 -66 -28 -96 -42 -80 -5 4 -2
10 4 12 13 5 10 35 -9 85 -19 52 -74 45 -98 -12 l-13 -30 -30 42 c-17 24 -37
47 -44 51 -7 4 -13 16 -13 25 0 9 -7 31 -16 47 -26 48 -28 151 -6 215 l20 55
-5 -66 c-6 -76 6 -109 42 -109 40 0 54 11 61 46 3 19 9 34 13 34 3 0 18 -21
33 -45 25 -41 31 -45 66 -45 44 0 59 13 68 57 6 30 -16 122 -35 153 -6 9 -26
15 -50 15 -34 0 -38 2 -30 17 5 9 9 21 9 27 0 13 -52 61 -66 61 -6 0 -17 6
-23 14 -11 12 -7 13 26 3 21 -6 56 -22 78 -35z m10 -680 c-15 -16 -16 -15 -4
12 7 15 15 23 17 16 3 -7 -3 -19 -13 -28z"/>
<path d="M3289 2659 c-18 -34 4 -89 46 -116 47 -31 82 -30 97 2 32 71 -107
181 -143 114z m84 -21 c41 -28 47 -37 47 -69 0 -38 -26 -44 -66 -17 -36 25
-60 68 -50 93 8 21 33 19 69 -7z"/>
<path d="M6016 3151 c-3 -5 1 -11 9 -15 9 -3 15 0 15 9 0 16 -16 20 -24 6z"/>
<path d="M6013 3103 c-4 -9 -1 -19 5 -21 7 -2 12 -10 12 -18 0 -8 10 -14 22
-14 12 0 31 -9 42 -19 31 -28 94 -61 116 -61 11 0 20 -7 20 -15 0 -8 6 -15 13
-15 6 0 23 -9 37 -20 26 -21 65 -26 74 -11 11 18 -6 40 -43 54 -20 9 -43 22
-50 31 -8 9 -21 16 -31 16 -38 0 -120 47 -120 69 0 6 -11 11 -24 11 -13 0 -26
7 -30 15 -7 20 -35 19 -43 -2z"/>
<path d="M5405 3022 c-15 -10 -13 -65 2 -77 7 -5 19 -33 26 -61 12 -48 19 -60
58 -103 8 -9 13 -23 11 -30 -6 -17 37 -61 59 -61 10 0 23 -9 29 -20 6 -11 16
-20 22 -20 6 0 20 -8 30 -17 12 -11 22 -13 29 -6 11 11 2 43 -12 43 -5 0 -9 7
-9 15 0 9 -8 18 -17 22 -32 11 -74 45 -84 67 -12 28 -31 58 -45 71 -7 5 -15
23 -19 40 -3 16 -12 34 -18 38 -9 6 -9 10 1 14 19 7 14 20 -10 27 -18 4 -20 8
-11 17 10 10 8 16 -9 31 -12 10 -21 18 -22 18 -1 0 -6 -4 -11 -8z"/>
<path d="M5860 3004 c-14 -37 -13 -41 19 -55 17 -7 32 -21 34 -31 3 -10 16
-22 29 -27 12 -5 32 -18 42 -30 11 -11 24 -21 31 -21 7 0 20 -9 30 -20 10 -11
26 -20 36 -20 10 0 21 -5 24 -11 4 -5 12 -8 18 -6 7 2 20 0 29 -4 23 -12 32 5
16 30 -12 20 -42 34 -68 32 -16 -1 -70 44 -70 59 0 6 -9 10 -20 10 -22 0 -75
48 -105 93 -22 34 -33 34 -45 1z"/>
<path d="M5650 2925 c0 -14 5 -25 10 -25 6 0 10 -6 8 -13 -3 -14 55 -87 69
-87 12 -1 53 -37 53 -48 0 -16 39 -45 54 -39 8 3 17 -1 20 -9 3 -8 12 -14 19
-14 8 0 20 -7 28 -16 12 -14 14 -14 26 2 18 25 16 34 -7 34 -11 0 -19 5 -17
12 1 7 -3 12 -9 13 -6 0 -18 8 -28 18 -10 9 -22 15 -27 12 -5 -4 -9 -1 -9 4 0
6 -6 11 -13 11 -7 0 -17 13 -23 29 -7 16 -24 34 -43 42 -17 8 -31 19 -31 24 0
14 -56 75 -69 75 -6 0 -11 -11 -11 -25z"/>
<path d="M3949 2884 c-23 -25 -23 -26 -5 -39 12 -9 17 -21 13 -35 -3 -13 0
-23 9 -27 8 -3 13 -12 10 -19 -3 -7 6 -27 19 -43 14 -16 25 -34 25 -40 0 -6 7
-11 15 -11 8 0 15 -9 15 -19 0 -11 5 -23 10 -26 6 -4 8 -10 6 -14 -3 -4 6 -18
19 -29 14 -12 25 -26 25 -32 0 -5 5 -10 11 -10 7 0 17 -7 23 -15 9 -11 20 -12
50 -5 21 4 45 6 52 3 8 -3 14 0 14 7 0 8 11 11 33 7 37 -5 77 10 77 30 0 17
17 17 23 1 4 -10 8 -10 15 1 12 16 168 16 188 0 8 -7 14 -7 19 1 9 15 48 12
71 -5 10 -8 26 -15 35 -15 10 0 23 -18 33 -45 10 -25 25 -49 34 -54 13 -7 17
-23 16 -60 0 -41 3 -52 19 -57 25 -8 27 -5 34 55 4 32 2 51 -5 51 -5 0 -15 13
-20 29 -27 78 -152 187 -180 159 -8 -8 -18 -8 -37 0 -18 8 -33 9 -52 1 -15 -6
-52 -9 -83 -8 -30 1 -63 -2 -72 -6 -9 -4 -22 -4 -28 0 -6 4 -18 1 -26 -6 -9
-7 -26 -14 -37 -16 -12 -2 -34 -8 -50 -14 -44 -18 -113 -4 -142 28 -13 16 -25
33 -25 39 0 6 -7 17 -15 24 -8 7 -15 20 -15 30 0 10 -7 20 -15 24 -8 3 -15 14
-15 25 0 10 -9 21 -20 24 -12 3 -21 14 -22 29 0 12 -2 29 -2 37 -1 8 -10 17
-21 21 -18 7 -19 8 -2 15 17 7 24 35 9 35 -5 0 -19 -12 -33 -26z"/>
<path d="M731 2804 c0 -11 3 -14 6 -6 3 7 2 16 -1 19 -3 4 -6 -2 -5 -13z"/>
<path d="M5950 2670 c0 -5 5 -10 10 -10 6 0 10 5 10 10 0 6 -4 10 -10 10 -5 0
-10 -4 -10 -10z"/>
<path d="M9230 2545 c0 -8 5 -15 10 -15 6 0 10 7 10 15 0 8 -4 15 -10 15 -5 0
-10 -7 -10 -15z"/>
<path d="M5905 2492 c-3 -4 -14 -7 -23 -7 -90 -3 -244 -19 -248 -26 -3 -5 -15
-9 -27 -9 -13 0 -39 -8 -60 -19 -20 -10 -35 -15 -32 -11 3 5 1 11 -4 14 -5 3
-12 -1 -15 -10 -5 -12 -15 -15 -39 -11 -23 3 -40 -1 -62 -18 -30 -22 -88 -41
-113 -36 -7 1 -29 -7 -48 -18 -23 -14 -53 -21 -84 -21 -27 0 -52 -4 -55 -10
-3 -5 -15 -10 -26 -10 -10 0 -19 -6 -19 -14 0 -9 -15 -17 -40 -21 -22 -4 -40
-11 -40 -16 0 -6 -5 -7 -11 -4 -5 4 -19 -1 -30 -11 -12 -11 -19 -13 -19 -5 0
14 -36 6 -58 -12 -8 -6 -37 -19 -65 -29 -29 -10 -56 -24 -62 -31 -12 -15 -98
-59 -111 -56 -21 4 -34 -2 -34 -16 0 -8 4 -15 9 -15 5 0 7 -9 4 -20 -4 -15 0
-20 16 -20 17 0 21 -6 21 -35 0 -36 15 -48 23 -17 4 13 5 11 6 -5 1 -14 7 -23
17 -23 13 0 15 -7 11 -32 -3 -23 2 -44 15 -66 24 -39 33 -33 42 23 6 36 3 44
-29 83 -20 23 -33 46 -30 52 4 6 1 17 -5 25 -6 8 -9 19 -5 24 10 17 92 71 108
71 7 0 36 11 63 25 27 14 64 30 82 36 17 6 32 16 32 22 0 7 5 5 10 -5 12 -20
54 -12 46 8 -3 9 2 14 14 14 11 0 39 11 64 25 32 18 53 23 75 19 21 -4 39 -1
56 10 14 10 40 19 56 21 17 2 36 8 42 13 7 5 32 13 56 17 24 4 63 18 87 30 29
15 41 18 37 9 -3 -8 1 -14 11 -14 9 0 16 5 16 10 0 6 7 10 15 10 8 0 15 5 15
11 0 6 9 9 20 6 11 -3 23 -1 26 4 3 6 14 7 25 4 10 -4 19 -2 19 3 0 16 28 22
54 12 17 -6 27 -4 38 7 13 12 19 13 37 2 17 -11 25 -11 48 2 16 9 39 13 53 10
22 -5 25 -12 26 -48 0 -24 -3 -43 -8 -43 -4 0 -8 -5 -8 -11 0 -6 6 -9 13 -6
16 6 19 -94 3 -105 -6 -4 3 -12 19 -18 23 -9 26 -13 15 -20 -11 -7 -12 -12 -4
-20 16 -16 47 -1 39 19 -7 17 -17 165 -17 241 0 38 -3 47 -23 56 -13 7 -27 9
-30 6z"/>
<path d="M4820 2310 c0 -5 5 -10 11 -10 5 0 7 5 4 10 -3 6 -8 10 -11 10 -2 0
-4 -4 -4 -10z"/>
<path d="M8975 2270 c-3 -5 -1 -10 4 -10 6 0 11 5 11 10 0 6 -2 10 -4 10 -3 0
-8 -4 -11 -10z"/>
<path d="M8915 2180 c-3 -5 -1 -10 4 -10 6 0 11 5 11 10 0 6 -2 10 -4 10 -3 0
-8 -4 -11 -10z"/>
<path d="M5988 2104 c-11 -18 4 -64 21 -64 9 0 21 -10 26 -22 6 -13 19 -24 30
-26 21 -3 63 -41 109 -97 19 -23 27 -27 37 -18 18 18 4 42 -23 37 -13 -2 -17
-2 -10 2 17 8 15 33 -3 40 -8 4 -12 10 -9 15 3 5 -3 12 -13 16 -18 6 -64 40
-94 68 -9 8 -19 15 -23 15 -4 0 -16 10 -25 22 -10 12 -20 17 -23 12z"/>
<path d="M6230 1864 c0 -9 9 -18 19 -21 11 -3 22 -12 25 -20 8 -21 36 2 36 28
0 16 -5 18 -25 13 -15 -4 -25 -2 -25 5 0 6 -7 11 -15 11 -8 0 -15 -7 -15 -16z"/>
<path d="M6308 1819 c-19 -11 -24 -29 -8 -29 5 0 25 -17 44 -37 29 -32 36 -35
50 -24 14 12 16 11 16 -6 0 -21 39 -63 58 -63 7 0 12 -9 12 -20 0 -12 12 -25
34 -35 19 -9 37 -23 40 -31 3 -8 12 -14 20 -14 7 0 16 -7 20 -15 3 -8 12 -15
20 -15 7 0 13 -7 12 -16 -1 -20 14 -27 32 -15 19 12 -4 47 -40 64 -15 6 -32
23 -38 37 -6 14 -31 39 -55 55 -25 17 -45 33 -45 38 0 4 -6 7 -13 7 -8 0 -20
11 -27 25 -8 14 -29 33 -48 42 -19 9 -39 27 -45 40 -11 26 -15 27 -39 12z"/>
<path d="M4685 1761 c-3 -6 -11 -8 -18 -5 -7 2 -17 -6 -22 -18 -6 -14 -20 -24
-37 -26 -16 -2 -28 -8 -28 -14 0 -5 -6 -8 -13 -5 -17 6 -77 -39 -77 -59 0 -8
-9 -14 -20 -14 -11 0 -20 -7 -20 -15 0 -9 -6 -15 -12 -14 -26 3 -39 -1 -33
-11 3 -5 0 -10 -8 -10 -8 0 -22 -9 -32 -20 -10 -11 -21 -17 -25 -15 -4 2 -15
-4 -25 -15 -10 -11 -24 -20 -32 -20 -7 0 -13 -4 -13 -8 0 -9 -91 -42 -114 -42
-6 0 -26 -13 -44 -30 -18 -16 -40 -30 -48 -30 -8 0 -23 -9 -35 -21 -14 -14
-30 -19 -52 -17 -31 3 -32 1 -35 -35 -3 -36 -2 -38 19 -32 12 4 27 8 33 9 34
7 94 41 118 67 15 16 31 29 36 29 5 0 15 6 22 14 6 8 17 13 25 10 7 -3 16 -1
20 5 3 6 15 11 26 11 10 0 19 6 19 14 0 9 8 12 24 9 17 -4 27 1 35 16 7 12 22
21 36 21 14 0 29 8 35 20 6 11 17 20 24 20 8 0 19 7 27 16 7 9 29 22 50 30 20
8 42 26 49 40 8 14 22 24 36 24 12 0 24 7 28 15 3 8 13 15 22 15 9 0 27 11 40
25 13 14 27 25 32 25 6 0 12 7 16 15 3 8 13 15 22 15 24 0 8 13 -21 17 -13 2
-26 -1 -30 -6z"/>
<path d="M8395 1260 c3 -5 8 -10 11 -10 2 0 4 5 4 10 0 6 -5 10 -11 10 -5 0
-7 -4 -4 -10z"/>
<path d="M6678 1238 c-9 -17 -13 -78 -13 -223 0 -167 3 -206 17 -237 11 -25
24 -38 36 -38 26 0 32 19 21 66 -4 22 -9 132 -9 247 0 199 -1 207 -20 207 -10
0 -25 -10 -32 -22z"/>
<path d="M8090 1220 c0 -5 5 -10 10 -10 6 0 10 5 10 10 0 6 -4 10 -10 10 -5 0
-10 -4 -10 -10z"/>
<path d="M5661 1194 c-32 -23 -69 -111 -96 -229 -20 -88 -25 -100 -42 -97 -24
3 -47 -22 -39 -43 3 -8 17 -15 32 -15 l27 0 -7 -60 c-6 -51 -5 -61 10 -67 24
-9 44 23 44 71 0 23 4 46 8 52 4 6 33 14 64 18 l57 7 6 -48 c3 -26 12 -64 18
-83 13 -34 41 -50 58 -33 9 9 -12 278 -31 406 -12 76 -31 121 -55 131 -24 9
-28 8 -54 -10z m47 -190 c5 -60 8 -110 8 -111 -1 -1 -25 -5 -54 -9 -47 -6 -52
-5 -52 12 0 34 30 144 52 196 28 65 35 51 46 -88z"/>
<path d="M3973 1174 c-36 -28 -46 -74 -17 -74 13 0 15 -7 10 -32 -13 -70 -27
-282 -21 -312 20 -92 61 -98 197 -28 71 36 93 52 93 67 0 29 -35 25 -132 -18
l-81 -35 -6 23 c-6 23 3 130 25 314 11 87 11 95 -6 108 -24 17 -25 17 -62 -13z"/>
<path d="M1885 1150 c3 -5 8 -10 11 -10 2 0 4 5 4 10 0 6 -5 10 -11 10 -5 0
-7 -4 -4 -10z"/>
<path d="M6455 1088 c-34 -26 -64 -91 -65 -137 0 -49 36 -119 72 -137 22 -11
44 -14 73 -9 80 11 89 65 12 65 -30 0 -49 6 -60 18 -24 26 -22 28 27 42 87 24
117 100 61 155 -31 32 -82 33 -120 3z m85 -53 c17 -20 -1 -41 -41 -50 -40 -9
-42 -5 -19 33 21 35 41 40 60 17z"/>
<path d="M5150 1093 c-24 -9 -61 -46 -71 -72 -11 -27 0 -48 58 -112 28 -31 32
-40 20 -45 -9 -3 -24 -1 -34 4 -25 13 -43 4 -43 -22 0 -28 29 -56 59 -56 34 0
81 28 91 56 13 33 -7 79 -54 123 -34 33 -35 36 -19 53 9 10 24 18 35 18 21 0
25 29 6 48 -13 13 -24 14 -48 5z"/>
<path d="M6264 1086 c-37 -16 -64 -51 -64 -83 0 -12 20 -45 45 -73 25 -28 45
-55 45 -60 0 -13 -33 -13 -46 0 -15 15 -44 1 -44 -21 0 -29 36 -59 71 -59 21
0 40 10 61 30 25 26 29 36 24 63 -4 18 -25 50 -49 75 -34 35 -40 46 -31 60 6
9 20 19 30 20 32 6 39 20 19 42 -21 23 -21 23 -61 6z"/>
<path d="M2282 1078 c-17 -17 -15 -23 13 -36 34 -15 35 -15 35 6 0 17 -18 42
-30 42 -3 0 -11 -5 -18 -12z"/>
<path d="M4611 1045 c-39 -44 -66 -132 -52 -168 12 -32 48 -56 92 -63 42 -7
142 41 147 70 7 35 -14 40 -69 17 -90 -39 -121 -13 -79 69 22 43 36 55 45 40
3 -5 15 -10 26 -10 26 0 24 31 -4 58 -35 33 -70 28 -106 -13z"/>
<path d="M4896 1059 c-60 -47 -88 -166 -48 -202 28 -25 72 -21 104 10 27 25
28 26 28 6 0 -37 11 -53 37 -53 l26 0 -5 97 c-4 63 -10 99 -17 101 -7 2 -26
17 -42 33 -35 35 -48 36 -83 8z m38 -111 c-14 -27 -32 -43 -40 -36 -5 6 16 69
29 86 18 23 27 -19 11 -50z"/>
<path d="M4293 1062 c-35 -22 -39 -178 -6 -214 32 -36 73 -20 116 44 l25 38
11 -32 c15 -41 39 -68 63 -68 27 0 32 22 14 64 -9 21 -18 61 -22 89 -14 110
-48 116 -104 19 -57 -98 -62 -99 -58 -12 2 60 0 75 -12 77 -8 2 -20 -1 -27 -5z"/>
<path d="M5872 1047 c-17 -20 -27 -204 -12 -222 24 -29 49 -16 107 55 32 39
61 70 65 70 4 0 11 0 15 1 4 0 19 -30 33 -68 21 -54 31 -69 49 -71 35 -5 40
13 24 77 -26 97 -59 141 -107 141 -23 0 -41 -12 -79 -51 l-50 -52 6 49 c7 70
-20 109 -51 71z"/>
<path d="M8026 971 c-4 -7 -5 -15 -2 -18 9 -9 19 4 14 18 -4 11 -6 11 -12 0z"/>
<path d="M2505 780 c3 -5 8 -10 11 -10 2 0 4 5 4 10 0 6 -5 10 -11 10 -5 0 -7
-4 -4 -10z"/>
<path d="M3125 620 c3 -5 8 -10 11 -10 2 0 4 5 4 10 0 6 -5 10 -11 10 -5 0 -7
-4 -4 -10z"/>
<path d="M4648 313 c7 -3 16 -2 19 1 4 3 -2 6 -13 5 -11 0 -14 -3 -6 -6z"/>
</g>
</svg>
